<svg xmlns="http://www.w3.org/2000/svg" width="1084.295" height="1221.096" viewBox="0 0 1084.295 1221.096">
    <defs>
        <style>
            .cls-1{fill:#f0f8ff}.cls-2{fill:#f8faff}.cls-3{fill:#fbfcff}
        </style>
    </defs>
    <g id="Group_726" transform="translate(-1016.474 140.565)">
        <path id="Polygon_114" d="M191.515 0a10 10 0 0 1 8.662 5l59.994 103.99a10 10 0 0 1 0 9.994l-59.994 103.99a10 10 0 0 1-8.662 5H71.539a10 10 0 0 1-8.662-5L2.883 118.987a10 10 0 0 1 0-9.994L62.877 5a10 10 0 0 1 8.662-5z" class="cls-1" transform="rotate(74.99 747.084 1275.463)"/>
        <path id="Polygon_2199" d="M191.515 0a10 10 0 0 1 8.662 5l59.994 103.99a10 10 0 0 1 0 9.994l-59.994 103.99a10 10 0 0 1-8.662 5H71.539a10 10 0 0 1-8.662-5L2.883 118.987a10 10 0 0 1 0-9.994L62.877 5a10 10 0 0 1 8.662-5z" class="cls-2" transform="rotate(74.99 914.229 1402.942)"/>
        <path id="Polygon_2200" d="M191.515 0a10 10 0 0 1 8.662 5l59.994 103.99a10 10 0 0 1 0 9.994l-59.994 103.99a10 10 0 0 1-8.662 5H71.539a10 10 0 0 1-8.662-5L2.883 118.987a10 10 0 0 1 0-9.994L62.877 5a10 10 0 0 1 8.662-5z" class="cls-2" transform="rotate(74.99 941.82 1194.646)"/>
        <path id="Polygon_2195" d="M191.515 0a10 10 0 0 1 8.662 5l59.994 103.99a10 10 0 0 1 0 9.994l-59.994 103.99a10 10 0 0 1-8.662 5H71.539a10 10 0 0 1-8.662-5L2.883 118.987a10 10 0 0 1 0-9.994L62.877 5a10 10 0 0 1 8.662-5z" class="cls-2" transform="rotate(74.99 721.867 1480.106)"/>
        <path id="Polygon_2196" d="M191.515 0a10 10 0 0 1 8.662 5l59.994 103.99a10 10 0 0 1 0 9.994l-59.994 103.99a10 10 0 0 1-8.662 5H71.539a10 10 0 0 1-8.662-5L2.883 118.987a10 10 0 0 1 0-9.994L62.877 5a10 10 0 0 1 8.662-5z" class="cls-2" transform="rotate(74.99 396.941 1225.21)"/>
        <path id="Polygon_2202" d="M191.515 0a10 10 0 0 1 8.662 5l59.994 103.99a10 10 0 0 1 0 9.994l-59.994 103.99a10 10 0 0 1-8.662 5H71.539a10 10 0 0 1-8.662-5L2.883 118.987a10 10 0 0 1 0-9.994L62.877 5a10 10 0 0 1 8.662-5z" class="cls-3" transform="rotate(74.99 230.84 1103.14)"/>
        <path id="Polygon_2203" d="M191.515 0a10 10 0 0 1 8.662 5l59.994 103.99a10 10 0 0 1 0 9.994l-59.994 103.99a10 10 0 0 1-8.662 5H71.539a10 10 0 0 1-8.662-5L2.883 118.987a10 10 0 0 1 0-9.994L62.877 5a10 10 0 0 1 8.662-5z" class="cls-3" transform="rotate(74.99 371.073 1430.353)"/>
        <path id="Polygon_2205" d="M191.515 0a10 10 0 0 1 8.662 5l59.994 103.99a10 10 0 0 1 0 9.994l-59.994 103.99a10 10 0 0 1-8.662 5H71.539a10 10 0 0 1-8.662-5L2.883 118.987a10 10 0 0 1 0-9.994L62.877 5a10 10 0 0 1 8.662-5z" class="cls-3" transform="rotate(74.99 209.079 1308.239)"/>
        <path id="Polygon_2204" d="M191.515 0a10 10 0 0 1 8.662 5l59.994 103.99a10 10 0 0 1 0 9.994l-59.994 103.99a10 10 0 0 1-8.662 5H71.539a10 10 0 0 1-8.662-5L2.883 118.987a10 10 0 0 1 0-9.994L62.877 5a10 10 0 0 1 8.662-5z" class="cls-3" transform="rotate(74.99 532.46 1557.074)"/>
        <path id="Polygon_2197" d="M191.515 0a10 10 0 0 1 8.662 5l59.994 103.99a10 10 0 0 1 0 9.994l-59.994 103.99a10 10 0 0 1-8.662 5H71.539a10 10 0 0 1-8.662-5L2.883 118.987a10 10 0 0 1 0-9.994L62.877 5a10 10 0 0 1 8.662-5z" class="cls-2" transform="rotate(74.99 422.42 1020.909)"/>
        <path id="Polygon_2194" d="M191.515 0a10 10 0 0 1 8.662 5l59.994 103.99a10 10 0 0 1 0 9.994l-59.994 103.99a10 10 0 0 1-8.662 5H71.539a10 10 0 0 1-8.662-5L2.883 118.987a10 10 0 0 1 0-9.994L62.877 5a10 10 0 0 1 8.662-5z" class="cls-2" transform="rotate(74.99 778.862 1069.927)"/>
        <path id="Polygon_2201" d="M191.515 0a10 10 0 0 1 8.662 5l59.994 103.99a10 10 0 0 1 0 9.994l-59.994 103.99a10 10 0 0 1-8.662 5H71.539a10 10 0 0 1-8.662-5L2.883 118.987a10 10 0 0 1 0-9.994L62.877 5a10 10 0 0 1 8.662-5z" class="cls-3" transform="rotate(74.99 808.337 864.087)"/>
        <path id="Polygon_2192" d="M191.515 0a10 10 0 0 1 8.662 5l59.994 103.99a10 10 0 0 1 0 9.994l-59.994 103.99a10 10 0 0 1-8.662 5H71.539a10 10 0 0 1-8.662-5L2.883 118.987a10 10 0 0 1 0-9.994L62.877 5a10 10 0 0 1 8.662-5z" class="cls-2" transform="rotate(74.99 560.243 1353.077)"/>
        <path id="Polygon_2193" d="M191.515 0a10 10 0 0 1 8.662 5l59.994 103.99a10 10 0 0 1 0 9.994l-59.994 103.99a10 10 0 0 1-8.662 5H71.539a10 10 0 0 1-8.662-5L2.883 118.987a10 10 0 0 1 0-9.994L62.877 5a10 10 0 0 1 8.662-5z" class="cls-1" transform="rotate(74.99 587.567 1145.782)"/>
        <path id="Polygon_2198" d="M191.515 0a10 10 0 0 1 8.662 5l59.994 103.99a10 10 0 0 1 0 9.994l-59.994 103.99a10 10 0 0 1-8.662 5H71.539a10 10 0 0 1-8.662-5L2.883 118.987a10 10 0 0 1 0-9.994L62.877 5a10 10 0 0 1 8.662-5z" class="cls-2" transform="rotate(74.99 616.693 938.139)"/>
    </g>
</svg>
