<svg xmlns="http://www.w3.org/2000/svg" width="150" height="40" viewBox="0,0,150,40"><path fill="#111" d="M56.52 14.70L56.57 14.75L56.48 14.65Q54.57 14.84 53.62 14.99L53.48 14.85L53.56 14.93Q52.03 15.26 50.81 15.80L50.74 15.73L50.69 15.67Q47.13 17.07 47.02 21.75L47.16 21.89L47.16 21.89Q47.03 24.51 47.68 27.44L47.66 27.42L47.60 27.36Q48.49 31.41 52.10 32.59L52.23 32.72L52.18 32.66Q53.98 33.13 55.43 32.98L55.43 32.98L55.83 32.92L55.93 33.02Q56.12 33.02 56.31 33.06L56.25 33.00L56.29 33.04Q56.51 33.11 56.66 33.07L56.64 33.05L56.67 33.08Q59.31 32.83 60.69 32.26L60.67 32.24L57.11 28.72L56.96 28.57Q57.47 28.43 58.08 27.83L57.89 27.64L58.98 26.90L58.86 26.78Q60.64 28.79 62.62 30.85L62.64 30.87L62.72 30.94Q65.04 29.11 65.31 23.74L65.24 23.68L65.22 23.66Q65.29 22.74 65.29 21.83L65.32 21.86L65.37 21.91Q65.30 16.16 60.23 15.06L60.38 15.20L60.40 15.22Q59.01 14.82 56.49 14.67ZM69.29 36.76L69.33 36.79L69.16 36.62Q68.72 37.21 67.54 38.08L67.55 38.09L63.16 34.43L63.05 34.32Q60.56 35.53 56.30 35.56L56.40 35.67L56.36 35.62Q49.72 35.64 46.90 33.40L46.95 33.44L46.93 33.43Q45.18 31.68 44.72 28.71L44.75 28.73L44.79 28.77Q44.59 26.98 44.21 23.40L44.10 23.29L44.11 23.29Q44.17 22.63 44.06 20.88L44.04 20.87L44.10 20.93Q43.93 19.35 43.97 18.48L43.95 18.45L44.03 18.53Q44.05 15.39 45.80 13.83L45.75 13.78L45.85 13.89Q47.36 12.54 50.56 12.05L50.52 12.00L50.56 12.04Q52.96 11.59 55.85 11.66L55.82 11.64L55.85 11.66Q63.40 11.83 66.52 14.19L66.60 14.27L66.42 14.09Q68.66 16.29 68.39 21.20L68.37 21.18L68.40 21.21Q68.28 24.93 68.09 26.27L68.07 26.24L68.06 26.24Q67.30 30.62 64.98 32.94L65.00 32.96L65.12 33.08Q66.47 34.20 69.21 36.68ZM64.49 12.54L64.43 12.48L64.48 12.53Q62.44 11.78 55.93 11.29L55.88 11.24L55.85 11.21Q54.47 11.24 51.69 11.35L51.75 11.41L51.83 11.49Q47.51 11.62 45.26 13.60L45.26 13.60L45.27 13.60Q43.54 15.00 43.54 18.15L43.68 18.30L43.57 18.19Q43.58 19.04 43.73 20.75L43.73 20.75L43.73 20.75Q43.88 22.46 43.88 23.33L43.80 23.25L43.82 23.28Q44.09 25.14 44.47 28.72L44.36 28.61L44.35 28.60Q44.70 31.46 46.30 33.52L46.30 33.52L46.35 33.57Q46.73 34.44 47.94 35.58L47.87 35.51L47.87 35.51Q50.65 37.57 55.83 37.84L55.85 37.85L55.81 37.82Q56.17 37.83 58.57 37.94L58.51 37.89L58.65 38.03Q63.46 38.19 65.74 37.12L65.59 36.98L65.66 37.04Q66.62 37.81 71.34 41.39L71.30 41.35L71.18 41.23Q71.91 40.82 73.20 39.83L73.21 39.84L73.10 39.72Q72.21 39.03 71.41 38.34L71.48 38.40L69.76 36.88L69.92 36.88L69.97 36.94Q69.31 36.39 68.09 35.36L68.11 35.38L68.24 35.52Q70.13 32.98 70.13 28.45L69.96 28.28L70.04 28.36Q70.08 27.98 70.12 27.15L70.00 27.03L70.09 27.12Q70.12 26.28 70.12 25.86L70.22 25.96L70.07 25.81Q70.13 20.35 69.41 17.99L69.41 17.99L69.50 18.08Q69.01 16.67 68.13 15.61L68.07 15.54L68.20 15.67Q67.33 13.48 64.40 12.45ZM58.49 17.12L58.39 17.02L58.43 17.06Q62.51 16.99 64.34 18.59L64.31 18.56L64.21 18.46Q64.81 19.71 64.92 21.04L65.06 21.18L65.02 21.14Q65.02 22.32 64.95 23.69L64.89 23.64L65.06 23.80Q64.62 28.66 62.68 30.37L62.64 30.34L62.66 30.35Q61.42 29.11 58.91 26.37L58.93 26.39L58.95 26.41Q58.11 27.09 56.54 28.65L56.45 28.55L56.53 28.63Q57.17 29.32 58.31 30.50L58.24 30.42L58.20 30.50L58.17 30.47Q58.68 30.94 59.71 32.01L59.74 32.03L59.83 32.13Q58.72 32.27 56.39 32.57L56.37 32.55L55.84 32.56L55.50 32.64L55.46 32.63L55.44 32.61Q52.12 32.76 50.14 31.12L50.12 31.10L50.11 31.09Q48.94 28.85 48.98 25.73L49.08 25.83L49.12 25.88Q49.16 17.04 58.34 16.97Z"/><path fill="#333" d="M86.53 18.43L86.58 18.48L86.47 18.38Q83.24 18.34 81.41 17.27L81.49 17.35L81.48 17.34Q83.97 15.95 88.84 11.72L88.83 11.72L88.84 11.72Q89.61 11.58 90.90 10.97L90.89 10.95L90.84 10.91Q89.63 16.97 89.52 23.32L89.51 23.32L89.36 23.16Q89.32 29.60 90.39 35.69L90.39 35.70L90.48 35.78Q88.75 35.00 86.61 34.89L86.62 34.89L86.66 34.93Q86.50 30.74 86.50 26.67L86.41 26.58L86.51 26.68Q86.41 22.47 86.45 18.36ZM86.02 20.55L86.13 35.24L86.19 35.30Q87.29 35.18 88.24 35.37L88.29 35.42L88.21 35.34Q88.45 36.19 88.64 37.56L88.52 37.45L88.61 37.53Q91.47 38.07 93.90 40.31L93.93 40.34L93.87 40.28Q91.41 33.17 91.37 25.71L91.29 25.63L91.36 25.70Q91.32 18.27 93.15 11.04L93.13 11.02L93.13 11.02Q92.60 11.45 91.01 12.55L91.00 12.55L91.05 12.60Q91.23 11.82 91.53 10.30L91.53 10.30L91.49 10.26Q90.20 11.07 88.76 11.45L88.65 11.34L88.63 11.32Q84.93 14.96 80.62 17.25L80.55 17.17L80.60 17.23Q81.95 18.27 84.31 18.62L84.32 18.62L84.27 18.57Q83.72 19.21 82.43 20.27L82.43 20.27L82.36 20.20Q83.99 20.72 86.19 20.72L86.20 20.73Z"/><path fill="#222" d="M112.83 24.56L112.83 24.56L112.83 24.56Q112.96 28.95 112.23 33.10L112.24 33.10L112.16 33.02Q114.42 32.47 117.51 32.35L117.58 32.43L117.58 32.43Q118.87 32.57 119.93 31.56L119.92 31.56L119.91 31.54Q121.00 30.56 121.00 29.22L120.94 29.16L121.00 29.23Q120.92 28.84 120.88 28.57L120.93 28.62L120.88 28.57Q120.85 25.76 118.61 24.93L118.46 24.78L118.65 24.97Q117.78 24.56 117.09 24.63L117.20 24.74L117.04 24.58Q116.13 24.66 115.10 24.69L115.00 24.59L115.04 24.63Q114.03 24.73 113.00 24.73ZM111.79 14.30L111.71 14.22L111.75 14.27Q112.67 17.62 112.94 22.00L112.85 21.91L112.78 21.84Q114.22 21.95 116.89 21.99L116.93 22.03L116.98 22.08Q119.85 22.06 120.19 18.52L120.31 18.64L120.18 18.51Q120.38 16.57 118.97 15.73L119.00 15.77L119.00 15.76Q118.17 15.31 113.75 14.67L113.71 14.62L113.68 14.59Q112.57 14.40 111.66 14.17ZM107.99 37.04L108.09 37.14L108.02 37.06Q110.52 30.43 110.25 23.04L110.33 23.12L110.30 23.09Q109.87 15.65 106.93 9.18L107.01 9.26L106.94 9.19Q110.89 11.88 117.11 12.13L117.10 12.12L117.00 12.01Q123.29 12.33 123.63 15.22L123.61 15.20L123.60 15.18Q123.94 17.96 122.53 20.63L122.57 20.67L122.56 20.66Q121.71 22.06 120.11 22.74L120.24 22.87L120.15 22.78Q123.92 23.58 124.15 28.94L124.11 28.91L124.04 28.84Q124.19 30.02 124.12 31.43L124.16 31.47L124.14 31.45Q124.07 32.75 123.13 33.68L123.11 33.65L123.16 33.71Q122.22 34.63 120.89 34.78L120.91 34.80L120.75 34.65Q119.40 34.86 118.34 34.86L118.29 34.81L118.33 34.85Q112.50 34.73 107.97 37.02ZM120.89 37.46L120.78 37.34L120.87 37.43Q121.76 37.45 123.63 37.56L123.74 37.67L123.69 37.62Q125.12 37.68 126.22 36.81L126.07 36.65L126.21 36.80Q127.06 35.93 126.94 34.37L126.87 34.30L126.89 34.32Q126.76 33.31 126.04 29.85L125.99 29.79L126.01 29.82Q125.35 26.60 123.48 25.12L123.42 25.06L123.00 24.21L123.16 24.38Q124.66 22.80 125.23 19.03L125.25 19.05L125.32 19.11Q125.58 18.08 125.50 16.67L125.34 16.51L125.42 16.59Q125.32 15.23 124.22 14.39L124.18 14.36L124.21 14.39Q123.90 14.19 123.79 14.16L123.84 14.21L123.75 14.12Q123.66 13.76 122.82 12.97L122.68 12.82L122.68 12.82Q121.18 11.78 116.95 11.59L116.90 11.53L116.93 11.56Q110.27 11.26 106.27 8.37L106.44 8.54L106.42 8.52Q109.57 15.40 109.87 22.93L110.03 23.08L109.94 23.00Q110.36 30.92 107.54 37.85L107.38 37.69L109.55 36.85L109.56 36.86Q109.10 37.92 108.60 39.06L108.70 39.15L108.58 39.03Q112.87 37.16 117.89 37.16L118.00 37.26L117.90 37.17Q119.48 37.34 120.93 37.49ZM118.77 26.92L118.63 26.78L118.79 26.94Q119.40 26.75 120.31 27.20L120.29 27.18L120.36 27.25Q120.53 27.65 120.68 28.71L120.57 28.60L120.52 28.55Q120.84 30.06 119.91 31.10L119.83 31.03L119.77 30.96Q118.99 32.17 117.58 32.05L117.53 32.00L115.99 32.06L116.01 32.08Q115.35 32.22 114.63 32.33L114.51 32.21L114.48 32.18Q114.92 30.49 115.00 27.03L115.01 27.04L114.87 26.90Q115.61 26.92 116.87 26.88L116.81 26.82L116.90 26.91Q118.02 26.74 118.63 26.78ZM117.64 17.22L117.62 17.20L118.08 17.28L118.06 17.26Q118.19 17.16 118.38 17.20L118.50 17.32L118.88 17.32L119.18 17.43L119.87 17.59L119.90 17.61Q119.93 17.80 119.93 18.10L119.83 18.01L119.88 18.59L119.88 18.58Q119.83 19.80 118.96 20.73L119.01 20.78L118.94 20.71Q118.13 21.71 116.91 21.71L116.96 21.75L116.82 21.62Q115.91 21.73 115.91 21.73L115.95 21.78L115.91 21.74Q114.60 21.72 114.94 21.72L114.99 21.76L114.83 21.61Q114.85 20.14 114.54 17.09L114.62 17.17L114.61 17.16Q116.13 17.24 117.65 17.24Z"/><path fill="#111" d="M23.98 35.32L24.00 35.33L24.14 35.48Q19.97 35.61 18.98 33.29L18.92 33.22L18.90 33.21Q19.76 32.35 21.32 30.57L21.23 30.48L21.26 30.50Q21.72 32.49 24.73 32.60L24.73 32.60L24.83 32.71Q28.15 32.71 29.78 31.38L29.82 31.41L29.91 31.50Q31.22 29.81 31.15 27.10L31.08 27.04L31.10 27.06Q30.97 22.02 26.17 22.25L26.16 22.23L26.22 22.30Q23.47 22.51 21.72 23.77L21.56 23.61L21.23 23.43L21.12 23.40L21.06 23.33Q21.45 20.22 21.33 17.48L21.41 17.56L21.37 17.51Q21.30 14.94 20.96 11.63L20.90 11.56L20.83 11.49Q24.45 12.41 28.25 12.30L28.40 12.44L28.42 12.46Q32.05 12.21 35.63 10.96L35.66 10.99L35.23 12.65L35.09 12.51Q34.89 13.37 34.70 14.21L34.75 14.27L34.63 14.14Q31.56 15.22 27.68 15.22L27.65 15.20L27.76 15.30Q26.14 15.13 24.65 14.98L24.74 15.07L24.76 15.08Q24.65 15.74 24.31 20.19L24.39 20.27L24.39 20.28Q25.17 19.76 27.23 19.61L27.21 19.59L27.30 19.68Q30.92 19.79 32.36 21.47L32.31 21.41L32.28 21.39Q33.78 23.04 34.05 26.89L33.99 26.83L34.01 26.85Q34.21 30.97 32.99 32.99L33.16 33.15L33.09 33.08Q30.97 34.88 27.66 35.11L27.71 35.16L27.82 35.27Q26.78 35.30 24.11 35.45ZM30.02 37.59L30.03 37.60L30.07 37.64Q33.55 37.77 35.45 36.67L35.36 36.57L35.48 36.70Q36.48 35.18 36.48 33.09L36.39 33.00L36.40 33.00Q36.36 29.89 35.41 25.77L35.43 25.79L35.39 25.75Q35.17 24.16 33.95 22.75L33.79 22.59L33.93 22.77L33.62 22.39L33.34 22.25L33.34 22.25Q33.03 21.53 32.38 20.84L32.32 20.77L32.35 20.84L32.30 20.80Q30.79 19.13 27.09 19.13L27.15 19.19L26.99 19.29L26.94 19.24Q26.90 18.56 27.09 17.46L27.16 17.52L27.13 17.49Q32.16 17.65 36.20 16.01L36.22 16.04L36.17 15.99Q36.56 14.55 37.51 11.73L37.62 11.84L35.41 12.67L35.45 12.72Q35.79 11.54 36.29 10.39L36.39 10.50L36.39 10.50Q32.49 11.88 28.37 11.96L28.37 11.96L28.29 11.88Q24.18 11.99 20.22 10.88L20.24 10.90L20.39 11.06Q21.03 15.43 21.03 19.85L20.92 19.74L21.10 19.91Q20.94 21.66 20.83 23.56L20.92 23.65L20.87 23.60Q21.20 23.86 21.77 24.16L21.80 24.19L21.63 24.02Q22.06 23.89 22.71 23.54L22.68 23.51L22.77 23.60Q22.77 24.40 22.54 25.92L22.51 25.89L22.49 25.87Q22.89 26.04 23.30 26.27L23.29 26.26L23.20 26.16Q26.16 24.59 28.02 24.59L27.93 24.50L28.02 24.59Q29.32 24.55 30.50 25.20L30.38 25.09L30.34 25.04Q30.72 26.10 30.75 27.05L30.77 27.07L30.88 27.18Q30.99 29.80 29.96 30.91L29.90 30.85L29.79 30.74Q28.57 32.10 26.32 32.33L26.27 32.28L26.32 32.33Q25.23 32.26 24.54 32.19L24.56 32.20L24.62 32.26Q23.72 32.09 22.96 31.75L22.97 31.75L23.05 31.65L22.86 31.69L22.90 31.72Q22.15 31.28 21.62 29.95L21.63 29.96L21.55 29.88Q20.23 31.30 18.55 33.43L18.49 33.37L18.46 33.34Q18.92 34.14 19.76 35.10L19.69 35.02L19.61 34.94Q20.69 36.78 23.50 37.28L23.54 37.31L23.46 37.24Q24.67 37.50 30.04 37.61Z"/><path d="M21 21 C85 38,66 7,134 10" stroke="#111" fill="none"/></svg>