<svg xmlns="http://www.w3.org/2000/svg" width="186.139" height="55.351" viewBox="0 0 186.139 55.351">
    <defs>
        <style>
            .cls-5{fill-rule:evenodd;fill:#fff}
        </style>
    </defs>
    <g id="logo" transform="translate(-6.905 -22.612)">
        <g id="Group_428" transform="translate(110.14 22.613)">
            <path id="Path_3488" fill="#228ced" fill-rule="evenodd" d="M534.9 50.137L553.527 68.8a10.126 10.126 0 0 0 7.1 2.891h13.343a10.108 10.108 0 0 0 2.393-19.933 10.409 10.409 0 0 0-6.13.417 21.4 21.4 0 0 0-41-10.4 20.5 20.5 0 0 0-5.152-.654q-.561 0-1.115.03a27.475 27.475 0 0 1 53.078 4.413c.05 0 .475.034.765.084a16.186 16.186 0 0 1-2.835 32.126h-13.348a16.168 16.168 0 0 1-11.46-4.747l-.006.006-18.517-18.56-.037-.037a10.107 10.107 0 1 0 0 14.294l.078-.079 4.293 4.3a16.186 16.186 0 1 1-.074-22.814z" transform="translate(-507.274 -22.613)"/>
            <circle id="Ellipse_137" cx="3.876" cy="3.876" r="3.876" fill="#062870" transform="rotate(-2.56 463.347 -1101.53)"/>
            <path id="Path_3489" fill="#062870" fill-rule="evenodd" d="M558.378 172.544l-23.511 23.474a16.184 16.184 0 0 1-27.591-11.482l6.166 1.332a10.108 10.108 0 0 0 17.166 5.814l.038-.038.04-.04 17.243-17.208c1.437-1.434 1.906-1.845 3.906-1.847z" transform="translate(-507.274 -145.565)"/>
            <path id="Path_3490" fill="#001134" fill-rule="evenodd" d="M523.321 183.021a10.106 10.106 0 0 0 .158 20.212h-.036c-8.928 0-16.166-4.524-16.169-10.105v-.005c.002-5.553 7.174-10.061 16.047-10.102z" transform="translate(-507.274 -154.157)"/>
        </g>
        <path id="Path_3491" d="M26.685 293.842a3.428 3.428 0 0 0 .755-.073 1.317 1.317 0 0 0 .523-.232.945.945 0 0 0 .3-.413 1.736 1.736 0 0 0 .1-.618c-.276-.073-.548-.146-.818-.223l-.362-.095-.376-.1-.368-.1-.339-.088a2.81 2.81 0 0 1-.2-.876c0-.07-.008-.14-.008-.21a2.768 2.768 0 0 1 .088-.671 2.375 2.375 0 0 1 .866-1.281 2.594 2.594 0 0 1 .768-.393 3.033 3.033 0 0 1 .963-.143 2.975 2.975 0 0 1 .436.032c.145.022.3.053.468.095l-.25.959a2.911 2.911 0 0 0-.353-.08 2.13 2.13 0 0 0-.325-.025 1.967 1.967 0 0 0-.693.12 1.556 1.556 0 0 0-.55.345 1.423 1.423 0 0 0-.343.543 1.535 1.535 0 0 0-.09.531c0 .061 0 .121.008.181l.372.1.371.1c.128.033.266.068.411.1s.308.077.487.118a1.032 1.032 0 0 1 .595.346.968.968 0 0 1 .182.6 3.693 3.693 0 0 1-.14 1.073 1.78 1.78 0 0 1-.455.763 2 2 0 0 1-.811.46 4.172 4.172 0 0 1-1.211.153h-.958a2.814 2.814 0 0 1-.7-.083 2.734 2.734 0 0 1-.625-.241 2.549 2.549 0 0 1-.533-.381 2.722 2.722 0 0 1-.43-.506 3.11 3.11 0 0 1-.44-1.665 4.678 4.678 0 0 1 .178-1.236 8.459 8.459 0 0 1 .54-1.4l.881.428a7.742 7.742 0 0 0-.453 1.179 3.723 3.723 0 0 0-.15 1.006 2.121 2.121 0 0 0 .3 1.153 1.426 1.426 0 0 0 .595.555 1.836 1.836 0 0 0 .836.191zm7.488-1.5h-.1a2.093 2.093 0 0 1-.377-.031.789.789 0 0 1-.358-.182 3.338 3.338 0 0 1-.225 1.1 2.349 2.349 0 0 1-1.4 1.368 3.2 3.2 0 0 1-1.123.185h-.626v-.994h.636a2.862 2.862 0 0 0 .785-.095 1.287 1.287 0 0 0 .543-.3 1.271 1.271 0 0 0 .318-.542 2.788 2.788 0 0 0 .1-.811v-2.84h1v1.427a.641.641 0 0 0 .1.372.737.737 0 0 0 .225.218.8.8 0 0 0 .248.1.986.986 0 0 0 .165.025h.1v.994zm1.876-.994H34.1c-.075 0-.113.035-.113.1v.778a.1.1 0 0 0 .113.113h1.944c.08 0 .118-.038.118-.113v-.778c0-.068-.038-.1-.118-.1zm1.949 0c.08 0 .118.035.118.1v.778c0 .075-.038.113-.118.113h-1.945a.1.1 0 0 1-.113-.113v-.778c0-.068.038-.1.113-.1zm2.465-2.79l-.94.287.05.195c.02.085.042.18.065.287s.047.22.07.341.047.238.065.353.033.223.045.323a2.24 2.24 0 0 1 .018.25.857.857 0 0 1-.085.418.627.627 0 0 1-.2.225.607.607 0 0 1-.23.093 1.288 1.288 0 0 1-.175.018H37.89v.994h1.228a1.8 1.8 0 0 0 .6-.1 1.561 1.561 0 0 0 .538-.318 1.607 1.607 0 0 0 .388-.545 1.884 1.884 0 0 0 .15-.781 3.185 3.185 0 0 0-.022-.352c-.017-.135-.035-.275-.058-.418s-.046-.288-.071-.43-.052-.273-.078-.391l-.065-.3c-.019-.083-.03-.13-.037-.148zm-1.611 5.369l.755-.763.771.773-.763.763-.763-.773zm4.093-1.584h-.995v-6.551h.994v6.551zm9.746-.994v.994h-.115a1.8 1.8 0 0 1-1.244-.536 1.309 1.309 0 0 1-.363.295 2.307 2.307 0 0 1-.826.255 3.29 3.29 0 0 1-.348.039c-.12.008-.241.012-.366.012a5.23 5.23 0 0 1-.54-.027c-.088-.01-.183-.022-.285-.037s-.207-.036-.315-.063a2.8 2.8 0 0 1-.325-.1 2.044 2.044 0 0 1-.306-.143l-.432-.245.495-.863.431.245a1.212 1.212 0 0 0 .255.11 2.59 2.59 0 0 0 .313.075c.112.02.228.033.35.043s.242.013.363.013a5.155 5.155 0 0 0 .588-.03 1.132 1.132 0 0 0 .412-.112.3.3 0 0 0 .168-.231V291a.729.729 0 0 0-.137-.363q-.362-.56-.65-.994c-.19-.291-.351-.533-.481-.725l-.286-.425a1.092 1.092 0 0 1-.072-.11v.005l-.271-.418.831-.545.276.418.11.163.29.446.443.671.556.836c.088.13.187.275.3.435a4.849 4.849 0 0 0 .341.45 2.514 2.514 0 0 0 .367.353.6.6 0 0 0 .358.143zm3.61 0H55.869a1 1 0 0 1-.151-.025.857.857 0 0 1-.17-.062.581.581 0 0 1-.16-.111.55.55 0 0 1-.12-.177.641.641 0 0 1-.048-.261v-1.508h-.99v1.539a.824.824 0 0 1-.028.207.41.41 0 0 1-.116.2.7.7 0 0 1-.272.146 1.543 1.543 0 0 1-.478.06H52.5v.994h.833a2.613 2.613 0 0 0 .8-.113 1.688 1.688 0 0 0 .6-.328 1.261 1.261 0 0 0 .521.33 2.146 2.146 0 0 0 .718.112h.328v-.994zm-2.668-4.249l.755-.763.771.773-.763.763-.763-.773zm7.9 5.239a1.668 1.668 0 0 1-.648-.123 2.742 2.742 0 0 1-.525-.286 1.473 1.473 0 0 1-.542.493 1.305 1.305 0 0 1-.571.135 2.113 2.113 0 0 1-.428-.043 2.614 2.614 0 0 1-.415-.127c-.142-.057-.288-.125-.443-.2s-.325-.168-.508-.268a1.206 1.206 0 0 1-.923.423h-.413v-.994h.376a.3.3 0 0 0 .2-.078.763.763 0 0 0 .155-.206 2.064 2.064 0 0 0 .125-.3c.037-.116.075-.241.11-.375s.083-.286.131-.435a4.509 4.509 0 0 1 .172-.435 2.358 2.358 0 0 1 .231-.4 1.6 1.6 0 0 1 .315-.328 1.454 1.454 0 0 1 .418-.222 1.66 1.66 0 0 1 .546-.083 1.8 1.8 0 0 1 .8.168 1.661 1.661 0 0 1 .568.455 1.919 1.919 0 0 1 .338.663 2.744 2.744 0 0 1 .112.791.768.768 0 0 0 .106.433.756.756 0 0 0 .247.237.768.768 0 0 0 .272.1 1.8 1.8 0 0 0 .185.018h.132v.994zm-2.285-.776h.083a.344.344 0 0 0 .116-.03.5.5 0 0 0 .13-.085.577.577 0 0 0 .12-.172 1.155 1.155 0 0 0 .088-.283 2.233 2.233 0 0 0 .033-.431 1.03 1.03 0 0 0-.013-.145 1.264 1.264 0 0 0-.05-.222 1.43 1.43 0 0 0-.1-.246.868.868 0 0 0-.165-.232.84.84 0 0 0-.248-.173.8.8 0 0 0-.34-.068.665.665 0 0 0-.318.073.743.743 0 0 0-.236.2 1.261 1.261 0 0 0-.17.285 3.241 3.241 0 0 0-.128.331c-.038.115-.072.23-.1.345s-.062.221-.095.318c.117.063.242.128.37.193s.255.123.376.176a2.486 2.486 0 0 0 .353.125.99.99 0 0 0 .271.047zm4.264-.218h-1.946c-.075 0-.113.035-.113.1v.778a.1.1 0 0 0 .113.113h1.944c.08 0 .118-.038.118-.113v-.778c0-.068-.038-.1-.118-.1zm1.949 0c.08 0 .118.035.118.1v.778c0 .075-.038.113-.118.113h-1.946a.1.1 0 0 1-.113-.113v-.778c0-.068.038-.1.113-.1zm1.949 0h-1.946c-.075 0-.113.035-.113.1v.778a.1.1 0 0 0 .113.113h1.944c.08 0 .118-.038.118-.113v-.778c0-.068-.038-.1-.118-.1zm3.347.984a2.272 2.272 0 0 1-.751-.115 1.54 1.54 0 0 1-.567-.343 1.572 1.572 0 0 1-.556.351 1.752 1.752 0 0 1-.625.116h-1v-.994h1a1 1 0 0 0 .175-.021.586.586 0 0 0 .23-.1.664.664 0 0 0 .2-.23.889.889 0 0 0 .083-.42V289.2h.994v1.359a.8.8 0 0 0 .191.595.873.873 0 0 0 .626.187 1.014 1.014 0 0 0 .175-.023.6.6 0 0 0 .23-.1.692.692 0 0 0 .2-.235.9.9 0 0 0 .083-.421V289.2h.991v1.359a.811.811 0 0 0 .195.6.888.888 0 0 0 .636.19.8.8 0 0 0 .181-.027.621.621 0 0 0 .222-.108.7.7 0 0 0 .191-.24.892.892 0 0 0 .082-.415 2.178 2.178 0 0 0-.018-.248q-.018-.148-.045-.315c-.018-.113-.038-.227-.062-.343s-.045-.228-.068-.332-.045-.2-.065-.28l-.05-.187.939-.3c.007.018.018.067.038.145s.043.177.068.291.053.242.082.382.055.28.08.423.043.28.058.413a2.86 2.86 0 0 1 .023.35 1.885 1.885 0 0 1-.148.781 1.7 1.7 0 0 1-.382.555 1.522 1.522 0 0 1-.531.331 1.835 1.835 0 0 1-.6.113 2.22 2.22 0 0 1-.76-.123 1.653 1.653 0 0 1-.576-.35 1.555 1.555 0 0 1-.553.35 1.741 1.741 0 0 1-.62.113zm1.029-5.137l-.728.736-.726-.726.726-.736.728.726zm1.949-.017l-.718.726-.75-.718.736-.736.731.728zm-1-1.283l-.673-.671-.681.681.673.673.681-.683zm3.566 7.891a5.466 5.466 0 0 0 1.153-.1 1.687 1.687 0 0 0 .71-.313 1.355 1.355 0 0 0 .183-.183.922.922 0 0 0 .132-.223 1.336 1.336 0 0 0 .081-.277 2.092 2.092 0 0 0 .035-.348h-.775a2.521 2.521 0 0 1-.67-.093 1.7 1.7 0 0 1-.615-.312 1.642 1.642 0 0 1-.45-.576 2.016 2.016 0 0 1-.175-.886 2.671 2.671 0 0 1 .053-.555 2.5 2.5 0 0 1 .133-.438 1.771 1.771 0 0 1 .181-.333 2.371 2.371 0 0 1 .2-.246 1.866 1.866 0 0 1 .593-.4 1.808 1.808 0 0 1 .72-.143 1.861 1.861 0 0 1 .63.1 1.559 1.559 0 0 1 .525.313 1.883 1.883 0 0 1 .475.745 3.227 3.227 0 0 1 .16 1.078v.75h.831v.994h-.831a2.6 2.6 0 0 1-.207 1.058 2.03 2.03 0 0 1-.593.75 2.432 2.432 0 0 1-.45.28 2.832 2.832 0 0 1-.55.2 4.594 4.594 0 0 1-.67.115 7.572 7.572 0 0 1-.815.038v-.994zm1.494-4.434a.786.786 0 0 0-.65.29 1.3 1.3 0 0 0-.232.833 1.014 1.014 0 0 0 .082.441.687.687 0 0 0 .24.271.735.735 0 0 0 .167.08c.058.02.115.035.17.048a1.477 1.477 0 0 0 .148.025c.043 0 .08.007.107.007h.768v-.75a2.7 2.7 0 0 0-.045-.535 1.4 1.4 0 0 0-.118-.352.716.716 0 0 0-.161-.212.6.6 0 0 0-.178-.107.588.588 0 0 0-.167-.036c-.053 0-.1-.005-.13-.005zm6.77-1.984l-.783.59.823 1.013c.258.315.48.6.666.866a3.932 3.932 0 0 1 .39.647 1.087 1.087 0 0 1 .112.415.515.515 0 0 1-.023.153.7.7 0 0 1-.175.292.932.932 0 0 1-.26.18 1.212 1.212 0 0 1-.31.09 2.064 2.064 0 0 1-.313.025 1.736 1.736 0 0 1-.36-.04 3.388 3.388 0 0 1-.35-.1 2.133 2.133 0 0 0 .492-.653 1.849 1.849 0 0 0 .177-.82 1.407 1.407 0 0 0-.052-.366 1.8 1.8 0 0 0-.155-.381 2.027 2.027 0 0 0-.252-.36 1.7 1.7 0 0 0-.348-.3 1.746 1.746 0 0 0-.438-.21 1.7 1.7 0 0 0-.523-.077 2.028 2.028 0 0 0-.7.12 1.728 1.728 0 0 0-.568.335 1.53 1.53 0 0 0-.38.513 1.562 1.562 0 0 0-.138.658 1.767 1.767 0 0 0 .155.753 2.153 2.153 0 0 0 .426.611c-.148.015-.3.023-.448.027s-.31 0-.483 0h-.51v.994h.51a7.517 7.517 0 0 0 2.144-.26l.125.065.148.068c.055.027.112.052.172.077a2.763 2.763 0 0 0 .7.243 3.568 3.568 0 0 0 .661.065 2.623 2.623 0 0 0 .686-.085 1.969 1.969 0 0 0 .556-.246 1.683 1.683 0 0 0 .412-.376 1.593 1.593 0 0 0 .253-.482 1.424 1.424 0 0 0 .075-.353c.008-.1.012-.185.012-.242a2.207 2.207 0 0 0-.018-.3 2.064 2.064 0 0 0-.125-.456 1.644 1.644 0 0 0-.233-.412l-.195-.251-.258-.331-.288-.375c-.1-.13-.2-.26-.29-.387-.228-.3-.465-.61-.713-.939zm-2.536 2.583a.6.6 0 0 1 .07-.283.8.8 0 0 1 .188-.237.92.92 0 0 1 .273-.163.852.852 0 0 1 .321-.061.805.805 0 0 1 .26.05.912.912 0 0 1 .493.416.735.735 0 0 1 .088.365.868.868 0 0 1-.066.335 1.244 1.244 0 0 1-.175.3 1.351 1.351 0 0 1-.25.246 1.514 1.514 0 0 1-.295.182 2.24 2.24 0 0 1-.681-.513.962.962 0 0 1-.227-.637zm14 2.39h-.2a3.075 3.075 0 0 1-.683-.075 2.428 2.428 0 0 1-.606-.223 1.952 1.952 0 0 1-.493-.368 1.625 1.625 0 0 1-.338-.51 1.2 1.2 0 0 1-.288.352 1.658 1.658 0 0 1-.421.248 2.019 2.019 0 0 1-.6.15c-.061.005-.121.008-.181.008a1.955 1.955 0 0 1-.442-.055 1.533 1.533 0 0 1-.475-.2 1.676 1.676 0 0 1-.417-.373 1.737 1.737 0 0 1-.276-.512 1.915 1.915 0 0 1-.1-.633 1.958 1.958 0 0 1 .188-.868 2.384 2.384 0 0 1 .5-.681 3.115 3.115 0 0 1 .716-.507 5.053 5.053 0 0 1 .836-.348c-.015-.078-.032-.151-.047-.22s-.028-.14-.04-.212l.955-.228.808 3.267a1.25 1.25 0 0 0 .252.523 1.3 1.3 0 0 0 .373.3 1.289 1.289 0 0 0 .411.14 2.66 2.66 0 0 0 .372.032h.2v.994zm-2.8-2.209a1.159 1.159 0 0 0 .018-.2 1.833 1.833 0 0 0-.017-.2c-.01-.083-.03-.186-.057-.308s-.058-.245-.091-.366-.062-.24-.085-.355a3.159 3.159 0 0 0-1.186.615 1.1 1.1 0 0 0-.413.835.682.682 0 0 0 .115.4.773.773 0 0 0 .293.251.959.959 0 0 0 .395.1h.046a1.1 1.1 0 0 0 .368-.063 1.214 1.214 0 0 0 .41-.27.844.844 0 0 0 .2-.44zm8.444 2.209v-.994h-.137a1.529 1.529 0 0 1-.545-.092 1.594 1.594 0 0 1-.452-.27 3.225 3.225 0 0 1-.43-.443c-.141-.176-.3-.378-.473-.609l-1.752-2.344 3.58-1.649-.41-.913-4.088 1.886-.178.855c.116.13.243.276.385.441s.283.338.427.518.285.363.421.547.257.358.363.525a3.972 3.972 0 0 1 .253.456.838.838 0 0 1 .1.343.689.689 0 0 1-.013.128.612.612 0 0 1-.037.117.7.7 0 0 1-.2.2 1.324 1.324 0 0 1-.315.16 2.4 2.4 0 0 1-.4.1 2.6 2.6 0 0 1-.463.04h-1.49v.994h1.4a3.965 3.965 0 0 0 .695-.06 2.655 2.655 0 0 0 .608-.176 2.119 2.119 0 0 0 .55-.363 2.054 2.054 0 0 0 .217-.232 1.6 1.6 0 0 0 .161-.245c.138.157.275.3.408.433a2.455 2.455 0 0 0 .436.342 2.09 2.09 0 0 0 .532.221 2.675 2.675 0 0 0 .695.08zm1.864-.994c.08 0 .118.035.118.1v.778c0 .075-.038.113-.118.113h-1.944a.1.1 0 0 1-.113-.113v-.778c0-.068.038-.1.113-.1zm1.949 0h-1.956c-.075 0-.113.035-.113.1v.778a.1.1 0 0 0 .113.113h1.944c.08 0 .118-.038.118-.113v-.778c0-.068-.038-.1-.118-.1zm3.711 0v.994h-.331a2.144 2.144 0 0 1-.718-.112 1.259 1.259 0 0 1-.521-.33 1.692 1.692 0 0 1-.6.328 2.616 2.616 0 0 1-.8.113h-.833v-.994h.833a1.545 1.545 0 0 0 .478-.06.7.7 0 0 0 .271-.146.408.408 0 0 0 .116-.2.814.814 0 0 0 .028-.207v-1.539h.989v1.509a.641.641 0 0 0 .048.261.549.549 0 0 0 .12.177.584.584 0 0 0 .16.111.857.857 0 0 0 .17.062 1 1 0 0 0 .152.025h.1zm-2.757 2.629l.754-.763.771.773-.763.763-.763-.773zm6.008-1.644a1.739 1.739 0 0 0 .62-.113 1.558 1.558 0 0 0 .553-.35 1.651 1.651 0 0 0 .576.35 2.22 2.22 0 0 0 .759.123 1.837 1.837 0 0 0 .6-.113 1.526 1.526 0 0 0 .531-.331 1.705 1.705 0 0 0 .381-.555 1.885 1.885 0 0 0 .148-.781 2.815 2.815 0 0 0-.023-.35c-.015-.133-.033-.272-.058-.413s-.05-.283-.08-.423-.055-.266-.082-.382-.048-.211-.068-.291-.032-.127-.038-.145l-.939.3c.012.043.028.1.05.187s.042.175.065.28.045.215.068.332.043.23.062.343.033.216.045.315a2.183 2.183 0 0 1 .018.248.892.892 0 0 1-.082.415.7.7 0 0 1-.191.24.622.622 0 0 1-.222.108.806.806 0 0 1-.182.027.889.889 0 0 1-.636-.19.811.811 0 0 1-.195-.6v-1.36h-.991v1.359a.9.9 0 0 1-.083.421.689.689 0 0 1-.2.235.6.6 0 0 1-.23.1 1.012 1.012 0 0 1-.175.023.872.872 0 0 1-.626-.187.8.8 0 0 1-.192-.595V289.2h-.994v1.377a.89.89 0 0 1-.083.42.667.667 0 0 1-.2.23.588.588 0 0 1-.23.1 1 1 0 0 1-.175.021h-1v.994h1a1.752 1.752 0 0 0 .625-.116 1.573 1.573 0 0 0 .557-.351 1.539 1.539 0 0 0 .566.343 2.274 2.274 0 0 0 .751.115zm1.029-5.137l-.728.736-.726-.726.726-.736.728.726zm1.949-.017l-.718.726-.75-.718.736-.736.731.728zm-1-1.283l-.673-.671-.681.681.673.673z" class="cls-5" transform="translate(-16.095 -216.881)"/>
        <path id="Path_3492" d="M105.023 120.12a1.955 1.955 0 1 1-1.955 1.955 1.955 1.955 0 0 1 1.955-1.955zm-78 10.27v5.469a2.9 2.9 0 0 0 2.89 2.89h18.14a2.9 2.9 0 0 0 2.89-2.89v-5.469h3.839v5.469a6.744 6.744 0 0 1-6.729 6.729H29.916a6.744 6.744 0 0 1-6.729-6.729v-5.469zm63.2 12.2c.236 0 .5-.007.735-.024a6.833 6.833 0 0 0 4.347-1.993l.076-.077.076.077a6.826 6.826 0 0 0 9.674 0l.079-.081.08.081a6.847 6.847 0 0 0 11.684-4.837v-5.344h-3.869v5.344a2.978 2.978 0 0 1-5.957 0v-5.344h-3.877v5.344a2.978 2.978 0 0 1-5.957 0v-5.344h-3.867v5.344a2.992 2.992 0 0 1-2.978 2.978H89.3a6.414 6.414 0 0 0-8.239-8.5l2.54-1.455-1.9-3.329-7.4 4.24a8.048 8.048 0 0 0-3.959 4.618 5.632 5.632 0 0 0 .157 3.66 5.907 5.907 0 0 0 .372.775h-6.175a2.923 2.923 0 0 1-2.909-2.909v-18.729h-3.875v18.727a6.79 6.79 0 0 0 6.775 6.775zm-6.817-8.976a2.572 2.572 0 0 1 .422 5.109h-.836a2.572 2.572 0 0 1 .414-5.11zm-3.951-2.477a6.417 6.417 0 0 0-1.936 7.591h-.147a6.221 6.221 0 0 1-2.292-.954 2.8 2.8 0 0 1-1.021-1.217 1.872 1.872 0 0 1-.052-1.216A4.348 4.348 0 0 1 76.2 133l3.258-1.866zm27.49-6.559a1.923 1.923 0 0 1 0 3.846H103.1a1.923 1.923 0 1 1 0-3.846zm-67.96 19.978a1.955 1.955 0 1 1-1.955 1.955 1.955 1.955 0 0 1 1.955-1.955z" class="cls-5" transform="translate(-16.282 -94.473)"/>
    </g>
</svg>
