<svg xmlns="http://www.w3.org/2000/svg" xmlns:xlink="http://www.w3.org/1999/xlink" width="2014.45" height="373.496" viewBox="0 0 2014.45 373.496">
    <defs>
        <linearGradient id="linear-gradient" x1=".898" x2=".255" y1="-.288" y2=".985" gradientUnits="objectBoundingBox">
            <stop offset="0" stop-color="#baddfe"/>
            <stop offset="1" stop-color="#fff"/>
        </linearGradient>
        <linearGradient id="linear-gradient-4" x1="1.022" x2=".255" y1="-.534" y2=".984" xlink:href="#linear-gradient"/>
        <linearGradient id="linear-gradient-5" x1="1.1" x2=".5" y1="-.186" y2="1" xlink:href="#linear-gradient"/>
        <linearGradient id="linear-gradient-17" x1="1.562" x2="1.076" y1=".548" y2="1.501" gradientUnits="objectBoundingBox">
            <stop offset="0" stop-color="#f8fbfe"/>
            <stop offset="1" stop-color="#fff"/>
        </linearGradient>
        <style>
            .cls-1{fill:url(#linear-gradient)}.cls-3{fill:url(#linear-gradient-5)}.cls-4{fill:#f8fbfe}.cls-5{fill:url(#linear-gradient-17)}
        </style>
    </defs>
    <g id="Group_4750" transform="translate(0 14.496)">
        <g id="Group_403">
            <path id="Polygon_67" d="M92.858 0A8 8 0 0 1 99.8 4.03l27.931 48.87a8 8 0 0 1 0 7.939L99.8 109.7a8 8 0 0 1-6.946 4.03H37.142a8 8 0 0 1-6.942-4.03L2.269 60.836a8 8 0 0 1 0-7.939L30.2 4.03A8 8 0 0 1 37.142 0z" class="cls-1" transform="rotate(-30 94.242 25.252)"/>
            <path id="Polygon_68" d="M92.858 0A8 8 0 0 1 99.8 4.03l27.931 48.87a8 8 0 0 1 0 7.939L99.8 109.7a8 8 0 0 1-6.946 4.03H37.142a8 8 0 0 1-6.942-4.03L2.269 60.836a8 8 0 0 1 0-7.939L30.2 4.03A8 8 0 0 1 37.142 0z" class="cls-1" transform="rotate(-30 155.742 -204.27)"/>
            <path id="Polygon_69" d="M92.858 0A8 8 0 0 1 99.8 4.03l27.931 48.87a8 8 0 0 1 0 7.939L99.8 109.7a8 8 0 0 1-6.946 4.03H37.142a8 8 0 0 1-6.942-4.03L2.269 60.836a8 8 0 0 1 0-7.939L30.2 4.03A8 8 0 0 1 37.142 0z" class="cls-1" transform="rotate(-30 217.242 -433.79)"/>
            <path id="Polygon_70" fill="url(#linear-gradient-4)" d="M92.858 0A8 8 0 0 1 99.8 4.03l27.931 48.87a8 8 0 0 1 0 7.939L99.8 109.7a8 8 0 0 1-6.946 4.03H37.142a8 8 0 0 1-6.942-4.03L2.269 60.836a8 8 0 0 1 0-7.939L30.2 4.03A8 8 0 0 1 37.142 0z" transform="rotate(-30 278.742 -663.311)"/>
            <path id="Polygon_71" d="M92.858 0A8 8 0 0 1 99.8 4.03l27.931 48.87a8 8 0 0 1 0 7.939L99.8 109.7a8 8 0 0 1-6.946 4.03H37.142a8 8 0 0 1-6.942-4.03L2.269 60.836a8 8 0 0 1 0-7.939L30.2 4.03A8 8 0 0 1 37.142 0z" class="cls-3" transform="rotate(-30 340.242 -892.832)"/>
            <path id="Polygon_72" d="M92.858 0A8 8 0 0 1 99.8 4.03l27.931 48.87a8 8 0 0 1 0 7.939L99.8 109.7a8 8 0 0 1-6.946 4.03H37.142a8 8 0 0 1-6.942-4.03L2.269 60.836a8 8 0 0 1 0-7.939L30.2 4.03A8 8 0 0 1 37.142 0z" class="cls-3" transform="rotate(-30 401.742 -1122.354)"/>
            <path id="Polygon_73" d="M92.858 0A8 8 0 0 1 99.8 4.03l27.931 48.87a8 8 0 0 1 0 7.939L99.8 109.7a8 8 0 0 1-6.946 4.03H37.142a8 8 0 0 1-6.942-4.03L2.269 60.836a8 8 0 0 1 0-7.939L30.2 4.03A8 8 0 0 1 37.142 0z" class="cls-3" transform="rotate(-30 463.242 -1351.875)"/>
            <path id="Polygon_74" d="M92.858 0A8 8 0 0 1 99.8 4.03l27.931 48.87a8 8 0 0 1 0 7.939L99.8 109.7a8 8 0 0 1-6.946 4.03H37.142a8 8 0 0 1-6.942-4.03L2.269 60.836a8 8 0 0 1 0-7.939L30.2 4.03A8 8 0 0 1 37.142 0z" class="cls-3" transform="rotate(-30 524.742 -1581.396)"/>
            <path id="Polygon_75" d="M92.858 0A8 8 0 0 1 99.8 4.03l27.931 48.87a8 8 0 0 1 0 7.939L99.8 109.7a8 8 0 0 1-6.946 4.03H37.142a8 8 0 0 1-6.942-4.03L2.269 60.836a8 8 0 0 1 0-7.939L30.2 4.03A8 8 0 0 1 37.142 0z" class="cls-3" transform="rotate(-30 586.242 -1810.917)"/>
            <path id="Polygon_76" d="M92.858 0A8 8 0 0 1 99.8 4.03l27.931 48.87a8 8 0 0 1 0 7.939L99.8 109.7a8 8 0 0 1-6.946 4.03H37.142a8 8 0 0 1-6.942-4.03L2.269 60.836a8 8 0 0 1 0-7.939L30.2 4.03A8 8 0 0 1 37.142 0z" class="cls-3" transform="rotate(-30 647.742 -2040.438)"/>
            <path id="Polygon_77" d="M92.858 0A8 8 0 0 1 99.8 4.03l27.931 48.87a8 8 0 0 1 0 7.939L99.8 109.7a8 8 0 0 1-6.946 4.03H37.142a8 8 0 0 1-6.942-4.03L2.269 60.836a8 8 0 0 1 0-7.939L30.2 4.03A8 8 0 0 1 37.142 0z" class="cls-3" transform="rotate(-30 709.242 -2269.96)"/>
            <path id="Polygon_78" d="M92.858 0A8 8 0 0 1 99.8 4.03l27.931 48.87a8 8 0 0 1 0 7.939L99.8 109.7a8 8 0 0 1-6.946 4.03H37.142a8 8 0 0 1-6.942-4.03L2.269 60.836a8 8 0 0 1 0-7.939L30.2 4.03A8 8 0 0 1 37.142 0z" class="cls-3" transform="rotate(-30 770.742 -2499.48)"/>
            <path id="Polygon_79" d="M92.858 0A8 8 0 0 1 99.8 4.03l27.931 48.87a8 8 0 0 1 0 7.939L99.8 109.7a8 8 0 0 1-6.946 4.03H37.142a8 8 0 0 1-6.942-4.03L2.269 60.836a8 8 0 0 1 0-7.939L30.2 4.03A8 8 0 0 1 37.142 0z" class="cls-3" transform="rotate(-30 832.242 -2729.001)"/>
            <path id="Polygon_80" d="M92.858 0A8 8 0 0 1 99.8 4.03l27.931 48.87a8 8 0 0 1 0 7.939L99.8 109.7a8 8 0 0 1-6.946 4.03H37.142a8 8 0 0 1-6.942-4.03L2.269 60.836a8 8 0 0 1 0-7.939L30.2 4.03A8 8 0 0 1 37.142 0z" class="cls-3" transform="rotate(-30 893.742 -2958.523)"/>
            <path id="Polygon_81" d="M92.858 0A8 8 0 0 1 99.8 4.03l27.931 48.87a8 8 0 0 1 0 7.939L99.8 109.7a8 8 0 0 1-6.946 4.03H37.142a8 8 0 0 1-6.942-4.03L2.269 60.836a8 8 0 0 1 0-7.939L30.2 4.03A8 8 0 0 1 37.142 0z" class="cls-3" transform="rotate(-30 955.242 -3188.044)"/>
            <path id="Polygon_82" d="M92.858 0A8 8 0 0 1 99.8 4.03l27.931 48.87a8 8 0 0 1 0 7.939L99.8 109.7a8 8 0 0 1-6.946 4.03H37.142a8 8 0 0 1-6.942-4.03L2.269 60.836a8 8 0 0 1 0-7.939L30.2 4.03A8 8 0 0 1 37.142 0z" class="cls-3" transform="rotate(-30 1016.742 -3417.565)"/>
        </g>
        <g id="Group_404" transform="translate(62 105)">
            <path id="Polygon_67-2" d="M92.858 0A8 8 0 0 1 99.8 4.03l27.931 48.87a8 8 0 0 1 0 7.939L99.8 109.7a8 8 0 0 1-6.946 4.03H37.142a8 8 0 0 1-6.942-4.03L2.269 60.836a8 8 0 0 1 0-7.939L30.2 4.03A8 8 0 0 1 37.142 0z" class="cls-4" transform="rotate(-30 94.242 25.252)"/>
            <path id="Polygon_68-2" d="M92.858 0A8 8 0 0 1 99.8 4.03l27.931 48.87a8 8 0 0 1 0 7.939L99.8 109.7a8 8 0 0 1-6.946 4.03H37.142a8 8 0 0 1-6.942-4.03L2.269 60.836a8 8 0 0 1 0-7.939L30.2 4.03A8 8 0 0 1 37.142 0z" class="cls-4" transform="rotate(-30 155.742 -204.27)"/>
            <path id="Polygon_69-2" d="M92.858 0A8 8 0 0 1 99.8 4.03l27.931 48.87a8 8 0 0 1 0 7.939L99.8 109.7a8 8 0 0 1-6.946 4.03H37.142a8 8 0 0 1-6.942-4.03L2.269 60.836a8 8 0 0 1 0-7.939L30.2 4.03A8 8 0 0 1 37.142 0z" class="cls-4" transform="rotate(-30 217.242 -433.79)"/>
            <path id="Polygon_70-2" d="M92.858 0A8 8 0 0 1 99.8 4.03l27.931 48.87a8 8 0 0 1 0 7.939L99.8 109.7a8 8 0 0 1-6.946 4.03H37.142a8 8 0 0 1-6.942-4.03L2.269 60.836a8 8 0 0 1 0-7.939L30.2 4.03A8 8 0 0 1 37.142 0z" class="cls-4" transform="rotate(-30 278.742 -663.311)"/>
            <path id="Polygon_71-2" d="M92.858 0A8 8 0 0 1 99.8 4.03l27.931 48.87a8 8 0 0 1 0 7.939L99.8 109.7a8 8 0 0 1-6.946 4.03H37.142a8 8 0 0 1-6.942-4.03L2.269 60.836a8 8 0 0 1 0-7.939L30.2 4.03A8 8 0 0 1 37.142 0z" class="cls-4" transform="rotate(-30 340.242 -892.832)"/>
            <path id="Polygon_72-2" d="M92.858 0A8 8 0 0 1 99.8 4.03l27.931 48.87a8 8 0 0 1 0 7.939L99.8 109.7a8 8 0 0 1-6.946 4.03H37.142a8 8 0 0 1-6.942-4.03L2.269 60.836a8 8 0 0 1 0-7.939L30.2 4.03A8 8 0 0 1 37.142 0z" class="cls-4" transform="rotate(-30 401.742 -1122.354)"/>
            <path id="Polygon_73-2" d="M92.858 0A8 8 0 0 1 99.8 4.03l27.931 48.87a8 8 0 0 1 0 7.939L99.8 109.7a8 8 0 0 1-6.946 4.03H37.142a8 8 0 0 1-6.942-4.03L2.269 60.836a8 8 0 0 1 0-7.939L30.2 4.03A8 8 0 0 1 37.142 0z" class="cls-4" transform="rotate(-30 463.242 -1351.875)"/>
            <path id="Polygon_74-2" d="M92.858 0A8 8 0 0 1 99.8 4.03l27.931 48.87a8 8 0 0 1 0 7.939L99.8 109.7a8 8 0 0 1-6.946 4.03H37.142a8 8 0 0 1-6.942-4.03L2.269 60.836a8 8 0 0 1 0-7.939L30.2 4.03A8 8 0 0 1 37.142 0z" class="cls-4" transform="rotate(-30 524.742 -1581.396)"/>
            <path id="Polygon_75-2" d="M92.858 0A8 8 0 0 1 99.8 4.03l27.931 48.87a8 8 0 0 1 0 7.939L99.8 109.7a8 8 0 0 1-6.946 4.03H37.142a8 8 0 0 1-6.942-4.03L2.269 60.836a8 8 0 0 1 0-7.939L30.2 4.03A8 8 0 0 1 37.142 0z" class="cls-4" transform="rotate(-30 586.242 -1810.917)"/>
            <path id="Polygon_76-2" d="M92.858 0A8 8 0 0 1 99.8 4.03l27.931 48.87a8 8 0 0 1 0 7.939L99.8 109.7a8 8 0 0 1-6.946 4.03H37.142a8 8 0 0 1-6.942-4.03L2.269 60.836a8 8 0 0 1 0-7.939L30.2 4.03A8 8 0 0 1 37.142 0z" class="cls-4" transform="rotate(-30 647.742 -2040.438)"/>
            <path id="Polygon_77-2" d="M92.858 0A8 8 0 0 1 99.8 4.03l27.931 48.87a8 8 0 0 1 0 7.939L99.8 109.7a8 8 0 0 1-6.946 4.03H37.142a8 8 0 0 1-6.942-4.03L2.269 60.836a8 8 0 0 1 0-7.939L30.2 4.03A8 8 0 0 1 37.142 0z" class="cls-4" transform="rotate(-30 709.242 -2269.96)"/>
            <path id="Polygon_78-2" d="M92.858 0A8 8 0 0 1 99.8 4.03l27.931 48.87a8 8 0 0 1 0 7.939L99.8 109.7a8 8 0 0 1-6.946 4.03H37.142a8 8 0 0 1-6.942-4.03L2.269 60.836a8 8 0 0 1 0-7.939L30.2 4.03A8 8 0 0 1 37.142 0z" class="cls-4" transform="rotate(-30 770.742 -2499.48)"/>
            <path id="Polygon_79-2" d="M92.858 0A8 8 0 0 1 99.8 4.03l27.931 48.87a8 8 0 0 1 0 7.939L99.8 109.7a8 8 0 0 1-6.946 4.03H37.142a8 8 0 0 1-6.942-4.03L2.269 60.836a8 8 0 0 1 0-7.939L30.2 4.03A8 8 0 0 1 37.142 0z" class="cls-4" transform="rotate(-30 832.242 -2729.001)"/>
            <path id="Polygon_80-2" d="M92.858 0A8 8 0 0 1 99.8 4.03l27.931 48.87a8 8 0 0 1 0 7.939L99.8 109.7a8 8 0 0 1-6.946 4.03H37.142a8 8 0 0 1-6.942-4.03L2.269 60.836a8 8 0 0 1 0-7.939L30.2 4.03A8 8 0 0 1 37.142 0z" class="cls-4" transform="rotate(-30 893.742 -2958.523)"/>
            <path id="Polygon_81-2" d="M92.858 0A8 8 0 0 1 99.8 4.03l27.931 48.87a8 8 0 0 1 0 7.939L99.8 109.7a8 8 0 0 1-6.946 4.03H37.142a8 8 0 0 1-6.942-4.03L2.269 60.836a8 8 0 0 1 0-7.939L30.2 4.03A8 8 0 0 1 37.142 0z" class="cls-4" transform="rotate(-30 955.242 -3188.044)"/>
        </g>
        <g id="Group_405" transform="translate(1 210)">
            <path id="Polygon_67-3" d="M92.858 0A8 8 0 0 1 99.8 4.03l27.931 48.87a8 8 0 0 1 0 7.939L99.8 109.7a8 8 0 0 1-6.946 4.03H37.142a8 8 0 0 1-6.942-4.03L2.269 60.836a8 8 0 0 1 0-7.939L30.2 4.03A8 8 0 0 1 37.142 0z" class="cls-5" transform="rotate(-30 94.242 25.252)"/>
            <path id="Polygon_68-3" d="M92.858 0A8 8 0 0 1 99.8 4.03l27.931 48.87a8 8 0 0 1 0 7.939L99.8 109.7a8 8 0 0 1-6.946 4.03H37.142a8 8 0 0 1-6.942-4.03L2.269 60.836a8 8 0 0 1 0-7.939L30.2 4.03A8 8 0 0 1 37.142 0z" class="cls-5" transform="rotate(-30 155.742 -204.27)"/>
            <path id="Polygon_69-3" d="M92.858 0A8 8 0 0 1 99.8 4.03l27.931 48.87a8 8 0 0 1 0 7.939L99.8 109.7a8 8 0 0 1-6.946 4.03H37.142a8 8 0 0 1-6.942-4.03L2.269 60.836a8 8 0 0 1 0-7.939L30.2 4.03A8 8 0 0 1 37.142 0z" class="cls-5" transform="rotate(-30 217.242 -433.79)"/>
            <path id="Polygon_70-3" d="M92.858 0A8 8 0 0 1 99.8 4.03l27.931 48.87a8 8 0 0 1 0 7.939L99.8 109.7a8 8 0 0 1-6.946 4.03H37.142a8 8 0 0 1-6.942-4.03L2.269 60.836a8 8 0 0 1 0-7.939L30.2 4.03A8 8 0 0 1 37.142 0z" class="cls-5" transform="rotate(-30 278.742 -663.311)"/>
            <path id="Polygon_71-3" d="M92.858 0A8 8 0 0 1 99.8 4.03l27.931 48.87a8 8 0 0 1 0 7.939L99.8 109.7a8 8 0 0 1-6.946 4.03H37.142a8 8 0 0 1-6.942-4.03L2.269 60.836a8 8 0 0 1 0-7.939L30.2 4.03A8 8 0 0 1 37.142 0z" class="cls-5" transform="rotate(-30 340.242 -892.832)"/>
            <path id="Polygon_72-3" d="M92.858 0A8 8 0 0 1 99.8 4.03l27.931 48.87a8 8 0 0 1 0 7.939L99.8 109.7a8 8 0 0 1-6.946 4.03H37.142a8 8 0 0 1-6.942-4.03L2.269 60.836a8 8 0 0 1 0-7.939L30.2 4.03A8 8 0 0 1 37.142 0z" class="cls-5" transform="rotate(-30 401.742 -1122.354)"/>
            <path id="Polygon_73-3" d="M92.858 0A8 8 0 0 1 99.8 4.03l27.931 48.87a8 8 0 0 1 0 7.939L99.8 109.7a8 8 0 0 1-6.946 4.03H37.142a8 8 0 0 1-6.942-4.03L2.269 60.836a8 8 0 0 1 0-7.939L30.2 4.03A8 8 0 0 1 37.142 0z" class="cls-5" transform="rotate(-30 463.242 -1351.875)"/>
            <path id="Polygon_74-3" d="M92.858 0A8 8 0 0 1 99.8 4.03l27.931 48.87a8 8 0 0 1 0 7.939L99.8 109.7a8 8 0 0 1-6.946 4.03H37.142a8 8 0 0 1-6.942-4.03L2.269 60.836a8 8 0 0 1 0-7.939L30.2 4.03A8 8 0 0 1 37.142 0z" class="cls-5" transform="rotate(-30 524.742 -1581.396)"/>
            <path id="Polygon_75-3" d="M92.858 0A8 8 0 0 1 99.8 4.03l27.931 48.87a8 8 0 0 1 0 7.939L99.8 109.7a8 8 0 0 1-6.946 4.03H37.142a8 8 0 0 1-6.942-4.03L2.269 60.836a8 8 0 0 1 0-7.939L30.2 4.03A8 8 0 0 1 37.142 0z" class="cls-5" transform="rotate(-30 586.242 -1810.917)"/>
            <path id="Polygon_76-3" d="M92.858 0A8 8 0 0 1 99.8 4.03l27.931 48.87a8 8 0 0 1 0 7.939L99.8 109.7a8 8 0 0 1-6.946 4.03H37.142a8 8 0 0 1-6.942-4.03L2.269 60.836a8 8 0 0 1 0-7.939L30.2 4.03A8 8 0 0 1 37.142 0z" class="cls-5" transform="rotate(-30 647.742 -2040.438)"/>
            <path id="Polygon_77-3" d="M92.858 0A8 8 0 0 1 99.8 4.03l27.931 48.87a8 8 0 0 1 0 7.939L99.8 109.7a8 8 0 0 1-6.946 4.03H37.142a8 8 0 0 1-6.942-4.03L2.269 60.836a8 8 0 0 1 0-7.939L30.2 4.03A8 8 0 0 1 37.142 0z" class="cls-5" transform="rotate(-30 709.242 -2269.96)"/>
            <path id="Polygon_78-3" d="M92.858 0A8 8 0 0 1 99.8 4.03l27.931 48.87a8 8 0 0 1 0 7.939L99.8 109.7a8 8 0 0 1-6.946 4.03H37.142a8 8 0 0 1-6.942-4.03L2.269 60.836a8 8 0 0 1 0-7.939L30.2 4.03A8 8 0 0 1 37.142 0z" class="cls-5" transform="rotate(-30 770.742 -2499.48)"/>
            <path id="Polygon_79-3" d="M92.858 0A8 8 0 0 1 99.8 4.03l27.931 48.87a8 8 0 0 1 0 7.939L99.8 109.7a8 8 0 0 1-6.946 4.03H37.142a8 8 0 0 1-6.942-4.03L2.269 60.836a8 8 0 0 1 0-7.939L30.2 4.03A8 8 0 0 1 37.142 0z" class="cls-5" transform="rotate(-30 832.242 -2729.001)"/>
            <path id="Polygon_80-3" d="M92.858 0A8 8 0 0 1 99.8 4.03l27.931 48.87a8 8 0 0 1 0 7.939L99.8 109.7a8 8 0 0 1-6.946 4.03H37.142a8 8 0 0 1-6.942-4.03L2.269 60.836a8 8 0 0 1 0-7.939L30.2 4.03A8 8 0 0 1 37.142 0z" class="cls-5" transform="rotate(-30 893.742 -2958.523)"/>
            <path id="Polygon_81-3" d="M92.858 0A8 8 0 0 1 99.8 4.03l27.931 48.87a8 8 0 0 1 0 7.939L99.8 109.7a8 8 0 0 1-6.946 4.03H37.142a8 8 0 0 1-6.942-4.03L2.269 60.836a8 8 0 0 1 0-7.939L30.2 4.03A8 8 0 0 1 37.142 0z" class="cls-5" transform="rotate(-30 955.242 -3188.044)"/>
        </g>
    </g>
</svg>
