<svg xmlns="http://www.w3.org/2000/svg" id="cctv" width="74" height="74" viewBox="0 0 74 74">
    <defs>
        <style>
            .cls-1{fill:#baddfe}
        </style>
    </defs>
    <g id="Group_941" transform="translate(14.323 16.71)">
        <g id="Group_940">
            <path id="Path_17517" d="M105.07 119.758a3.581 3.581 0 1 1-3.1-5.371V112a5.968 5.968 0 1 0 5.169 8.952z" class="cls-1" transform="translate(-96 -112)"/>
        </g>
    </g>
    <g id="Group_943">
        <g id="Group_942">
            <path id="Path_17518" fill="#228ced" d="M52.516 35.806h10.742A10.755 10.755 0 0 0 74 25.065V17.9A10.755 10.755 0 0 0 63.258 7.161H48.6L46.215 0H30.172l-2.387 7.161H13.129A13.145 13.145 0 0 0 0 20.29v1.194h7.222c-.036.394-.061.79-.061 1.194A13.145 13.145 0 0 0 20.29 35.806h17.9a7.141 7.141 0 0 0 2.387 5.323v17.355a5.975 5.975 0 0 0 5.968 5.968h17.9v3.581A5.975 5.975 0 0 0 70.419 74H74V45.355h-3.581a5.975 5.975 0 0 0-5.968 5.968V54.9H50.129V41.13a7.141 7.141 0 0 0 2.387-5.324zm14.323 15.517a3.585 3.585 0 0 1 3.581-3.581h1.194v23.871h-1.195a3.585 3.585 0 0 1-3.581-3.581zM31.893 2.387H44.5l1.591 4.774H30.3zm31.365 7.161a8.364 8.364 0 0 1 8.355 8.352v1.2H26.2a13.12 13.12 0 0 0-5.557-9.548zM2.453 19.1a10.721 10.721 0 0 1 14.068-8.991A13.171 13.171 0 0 0 7.67 19.1zm7.1 3.581a10.746 10.746 0 0 1 10.34-10.725 10.724 10.724 0 0 1 3.978 8.335v1.194h7.091a11.045 11.045 0 0 1 .07 1.194 10.742 10.742 0 1 1-21.484 0zm29.058 10.738h-10.8a13.117 13.117 0 0 0 5.6-10.742c0-.4-.024-.8-.06-1.194h38.262v3.581a8.364 8.364 0 0 1-8.355 8.355H52.1a7.15 7.15 0 0 0-13.487 0zM62.065 57.29h2.387v4.774h-2.387zm-2.387 0v4.774h-13.13a3.585 3.585 0 0 1-3.581-3.581V42.55a7.029 7.029 0 0 0 4.774 0V54.9a2.39 2.39 0 0 0 2.387 2.387zM45.355 40.581a4.774 4.774 0 1 1 4.774-4.774 4.779 4.779 0 0 1-4.774 4.774z"/>
        </g>
    </g>
    <g id="Group_945" transform="translate(54.903 23.871)">
        <g id="Group_944">
            <path id="Path_17519" d="M368 160v7.161h9.548V160zm7.161 4.774h-4.774v-2.387h4.774z" class="cls-1" transform="translate(-368 -160)"/>
        </g>
    </g>
    <g id="Group_947" transform="translate(27.452 11.935)">
        <g id="Group_946">
            <path id="Rectangle_1366" d="M0 0H20V2H0z" class="cls-1" transform="translate(-.451 .065)"/>
        </g>
    </g>
    <g id="Group_949" transform="translate(54.903 14.323)">
        <g id="Group_948">
            <path id="Rectangle_1367" d="M0 0H2V3H0z" class="cls-1" transform="translate(.097 -.323)"/>
        </g>
    </g>
    <g id="Group_951" transform="translate(59.677 14.323)">
        <g id="Group_950">
            <path id="Rectangle_1368" d="M0 0H2V3H0z" class="cls-1" transform="translate(.322 -.323)"/>
        </g>
    </g>
    <g id="Group_953" transform="translate(64.452 14.323)">
        <g id="Group_952">
            <path id="Rectangle_1369" d="M0 0H3V3H0z" class="cls-1" transform="translate(-.451 -.323)"/>
        </g>
    </g>
</svg>
