<svg xmlns="http://www.w3.org/2000/svg" width="1377.5" height="1289" viewBox="0 0 1377.5 1289">
    <g>
        <path fill="#baddfe" d="M876.74 0a100 100 0 0 1 86.621 50.032l253.815 440a100 100 0 0 1 0 99.935l-253.815 440A100 100 0 0 1 876.74 1080H369.26a100 100 0 0 1-86.621-50.032l-253.815-440a100 100 0 0 1 0-99.935l253.815-440A100 100 0 0 1 369.26 0z" opacity="0.4" transform="translate(526.5 159) translate(-395 -159)"/>
        <path fill="#228ced" d="M963.753 0a100 100 0 0 1 86.611 50.015l282.788 490a100 100 0 0 1 0 99.97l-282.788 490A100 100 0 0 1 963.753 1180H398.247a100 100 0 0 1-86.611-50.015l-282.788-490a100 100 0 0 1 0-99.97l282.788-490A100 100 0 0 1 398.247 0z" opacity="0.8" transform="translate(526.5 159) translate(-526.5 -50)"/>
    </g>
</svg>
