<svg xmlns="http://www.w3.org/2000/svg" width="622.745" height="1027.627" viewBox="0 0 622.745 1027.627">
    <defs>
        <style>
            .cls-1,.cls-2,.cls-3{fill:none;stroke:#baddfe}.cls-2{opacity:.5}.cls-3{opacity:.2}.cls-5{fill:#baddfe}
        </style>
    </defs>
    <g id="honey" transform="translate(-1342.127 -1902.627)">
        <g id="Group_682" transform="translate(-372 -90)">
            <g id="Group_680" transform="translate(372 496)">
                <path id="Path_1577" d="M57.97 11.628v51.236l44.372 25.618 44.372-25.618V11.628L102.342-13.99z" class="cls-1" transform="translate(1728.658 1588.194)"/>
                <path id="Path_1580" d="M57.97 11.628v51.236l44.372 25.618 44.372-25.618V11.628L102.342-13.99z" class="cls-2" transform="translate(1462.658 1588.194)"/>
                <path id="Path_1578" d="M57.97 11.628v51.236l44.372 25.618 44.372-25.618V11.628L102.342-13.99z" class="cls-1" transform="translate(1817.658 1588.194)"/>
                <path id="Path_1579" d="M57.97 11.628v51.236l44.372 25.618 44.372-25.618V11.628L102.342-13.99z" class="cls-1" transform="translate(1506.658 1665.194)"/>
                <path id="Path_14947" d="M57.97 11.628v51.236l44.372 25.618 44.372-25.618V11.628L102.342-13.99z" class="cls-1" transform="translate(1417.658 1511.194)"/>
                <path id="Path_14948" d="M57.97 11.628v51.236l44.372 25.618 44.372-25.618V11.628L102.342-13.99z" class="cls-1" transform="translate(1373.658 1588.194)"/>
                <path id="Path_1581" d="M57.97 11.628v51.236l44.372 25.618 44.372-25.618V11.628L102.342-13.99z" class="cls-1" transform="translate(1728.658 1742.194)"/>
                <path id="Path_14944" d="M57.97 11.628v51.236l44.372 25.618 44.372-25.618V11.628L102.342-13.99z" class="cls-1" transform="translate(1684.658 1819.194)"/>
                <path id="Path_14949" d="M57.97 11.628v51.236l44.372 25.618 44.372-25.618V11.628L102.342-13.99z" class="cls-1" transform="translate(1728.658 1896.194)"/>
                <path id="Path_14953" d="M57.97 11.628v51.236l44.372 25.618 44.372-25.618V11.628L102.342-13.99z" class="cls-1" transform="translate(1772.658 1973.194)"/>
                <path id="Path_14960" d="M57.97 11.628v51.236l44.372 25.618 44.372-25.618V11.628L102.342-13.99z" class="cls-1" transform="translate(1640.658 2204.194)"/>
                <path id="Path_14961" d="M57.97 11.628v51.236l44.372 25.618 44.372-25.618V11.628L102.342-13.99z" class="cls-1" transform="translate(1551.658 2204.194)"/>
                <path id="Path_14969" d="M57.97 11.628v51.236l44.372 25.618 44.372-25.618V11.628L102.342-13.99z" class="cls-1" transform="translate(1507.658 2281.194)"/>
                <path id="Path_14970" d="M57.97 11.628v51.236l44.372 25.618 44.372-25.618V11.628L102.342-13.99z" class="cls-2" transform="translate(1462.658 2204.194)"/>
                <path id="Path_14972" d="M57.97 11.628v51.236l44.372 25.618 44.372-25.618V11.628L102.342-13.99z" class="cls-2" transform="translate(1418.658 2281.194)"/>
                <path id="Path_14975" d="M57.97 11.628v51.236l44.372 25.618 44.372-25.618V11.628L102.342-13.99z" class="cls-2" transform="translate(1374.658 2358.194)"/>
                <path id="Path_14976" d="M57.97 11.628v51.236l44.372 25.618 44.372-25.618V11.628L102.342-13.99z" class="cls-2" transform="translate(1507.658 2435.194)"/>
                <path id="Path_14973" d="M57.97 11.628v51.236l44.372 25.618 44.372-25.618V11.628L102.342-13.99z" class="cls-2" transform="translate(1329.658 2281.194)"/>
                <path id="Path_14974" d="M57.97 11.628v51.236l44.372 25.618 44.372-25.618V11.628L102.342-13.99z" class="cls-2" transform="translate(1284.658 2204.194)"/>
                <path id="Path_14971" d="M57.97 11.628v51.236l44.372 25.618 44.372-25.618V11.628L102.342-13.99z" class="cls-1" transform="translate(1418.658 2127.194)"/>
                <path id="Path_14962" d="M57.97 11.628v51.236l44.372 25.618 44.372-25.618V11.628L102.342-13.99z" class="cls-1" transform="translate(1596.658 2281.194)"/>
                <path id="Path_14963" d="M57.97 11.628v51.236l44.372 25.618 44.372-25.618V11.628L102.342-13.99z" class="cls-1" transform="translate(1640.658 2358.194)"/>
                <path id="Path_14965" d="M57.97 11.628v51.236l44.372 25.618 44.372-25.618V11.628L102.342-13.99z" class="cls-1" transform="translate(1551.658 2358.194)"/>
                <path id="Path_14957" d="M57.97 11.628v51.236l44.372 25.618 44.372-25.618V11.628L102.342-13.99z" class="cls-2" transform="translate(1817.658 2050.194)"/>
                <path id="Path_14952" d="M57.97 11.628v51.236l44.372 25.618 44.372-25.618V11.628L102.342-13.99z" class="cls-1" transform="translate(1639.658 1896.194)"/>
                <path id="Path_1574" d="M57.97 11.628v51.236l44.372 25.618 44.372-25.618V11.628L102.342-13.99z" class="cls-1" transform="translate(1773.286 1665.194)"/>
                <path id="Path_1575" d="M57.97 11.628v51.236l44.372 25.618 44.372-25.618V11.628L102.342-13.99z" class="cls-2" transform="translate(1684.658 1665.194)"/>
                <path id="Path_14945" d="M57.97 11.628v51.236l44.372 25.618 44.372-25.618V11.628L102.342-13.99z" class="cls-2" transform="translate(1551.658 1742.194)"/>
                <path id="Path_14946" d="M57.97 11.628v51.236l44.372 25.618 44.372-25.618V11.628L102.342-13.99z" class="cls-2" transform="translate(1595.658 1819.194)"/>
                <path id="Path_14950" d="M57.97 11.628v51.236l44.372 25.618 44.372-25.618V11.628L102.342-13.99z" class="cls-2" transform="translate(1817.658 1896.194)"/>
                <path id="Path_14954" d="M57.97 11.628v51.236l44.372 25.618 44.372-25.618V11.628L102.342-13.99z" class="cls-3" transform="translate(1683.658 1973.194)"/>
                <path id="Path_14955" d="M57.97 11.628v51.236l44.372 25.618 44.372-25.618V11.628L102.342-13.99z" class="cls-2" transform="translate(1639.658 2050.194)"/>
                <path id="Path_14956" d="M57.97 11.628v51.236l44.372 25.618 44.372-25.618V11.628L102.342-13.99z" class="cls-2" transform="translate(1728.658 2050.194)"/>
                <path id="Path_14958" d="M57.97 11.628v51.236l44.372 25.618 44.372-25.618V11.628L102.342-13.99z" class="cls-1" transform="translate(1684.658 2127.194)"/>
                <path id="Path_14964" d="M57.97 11.628v51.236l44.372 25.618 44.372-25.618V11.628L102.342-13.99z" class="cls-2" transform="translate(1507.658 2127.194)"/>
                <path id="Path_14959" d="M57.97 11.628v51.236l44.372 25.618 44.372-25.618V11.628L102.342-13.99z" class="cls-2" transform="translate(1728.658 2204.194)"/>
                <path id="Path_14966" d="M57.97 11.628v51.236l44.372 25.618 44.372-25.618V11.628L102.342-13.99z" class="cls-2" transform="translate(1773.286 2281.194)"/>
                <path id="Path_14967" d="M57.97 11.628v51.236l44.372 25.618 44.372-25.618V11.628L102.342-13.99z" class="cls-2" transform="translate(1729.286 2358.194)"/>
                <path id="Path_14968" d="M57.97 11.628v51.236l44.372 25.618 44.372-25.618V11.628L102.342-13.99z" class="cls-2" transform="translate(1685.286 2435.194)"/>
                <path id="Path_14951" d="M57.97 11.628v51.236l44.372 25.618 44.372-25.618V11.628L102.342-13.99z" class="cls-2" transform="translate(1817.658 1742.194)"/>
                <path id="Path_14942" d="M57.97 11.628v51.236l44.372 25.618 44.372-25.618V11.628L102.342-13.99z" class="cls-2" transform="translate(1595.658 1665.194)"/>
                <path id="Path_1576" d="M57.97 11.628v51.236l44.372 25.618 44.372-25.618V11.628L102.342-13.99z" class="cls-1" transform="translate(1639.658 1588.194)"/>
                <path id="Path_14943" d="M57.97 11.628v51.236l44.372 25.618 44.372-25.618V11.628L102.342-13.99z" class="cls-1" transform="translate(1683.658 1511.194)"/>
            </g>
        </g>
        <g id="Group_683" opacity="0.3" transform="translate(-369.021 -20.204)">
            <g id="Group_680-2" transform="translate(1714.627 1993.204)">
                <path id="Path_1577-2" d="M57.97 9.151v46.281l40.08 23.14 40.08-23.141V9.151L98.05-13.99z" class="cls-1" transform="translate(343.089 83.543)"/>
                <path id="Path_1580-2" d="M57.97 9.151v46.281l40.08 23.14 40.08-23.141V9.151L98.05-13.99z" class="cls-2" transform="translate(102.815 83.543)"/>
                <path id="Path_1578-2" d="M57.97 9.151v46.281l40.08 23.14 40.08-23.141V9.151L98.05-13.99z" class="cls-1" transform="translate(423.481 83.543)"/>
                <path id="Path_1579-2" d="M57.97 9.151v46.281l40.08 23.14 40.08-23.141V9.151L98.05-13.99z" class="cls-1" transform="translate(142.56 153.096)"/>
                <path id="Path_14947-2" d="M57.97 9.151v46.281l40.08 23.14 40.08-23.141V9.151L98.05-13.99z" class="cls-1" transform="translate(62.167 13.99)"/>
                <path id="Path_14948-2" d="M57.97 9.151v46.281l40.08 23.14 40.08-23.141V9.151L98.05-13.99z" class="cls-1" transform="translate(22.423 83.543)"/>
                <path id="Path_1581-2" d="M57.97 9.151v46.281l40.08 23.14 40.08-23.141V9.151L98.05-13.99z" class="cls-1" transform="translate(343.089 222.649)"/>
                <path id="Path_14944-2" d="M57.97 9.151v46.281l40.08 23.14 40.08-23.141V9.151L98.05-13.99z" class="cls-1" transform="translate(303.344 292.202)"/>
                <path id="Path_14949-2" d="M57.97 9.151v46.281l40.08 23.14 40.08-23.141V9.151L98.05-13.99z" class="cls-1" transform="translate(343.089 361.755)"/>
                <path id="Path_14953-2" d="M57.97 9.151v46.281l40.08 23.14 40.08-23.141V9.151L98.05-13.99z" class="cls-1" transform="translate(382.833 431.308)"/>
                <path id="Path_14960-2" d="M57.97 9.151v46.281l40.08 23.14 40.08-23.141V9.151L98.05-13.99z" class="cls-1" transform="translate(263.6 639.967)"/>
                <path id="Path_14961-2" d="M57.97 9.151v46.281l40.08 23.14 40.08-23.141V9.151L98.05-13.99z" class="cls-1" transform="translate(183.207 639.967)"/>
                <path id="Path_14969-2" d="M57.97 9.151v46.281l40.08 23.14 40.08-23.141V9.151L98.05-13.99z" class="cls-1" transform="translate(143.463 709.52)"/>
                <path id="Path_14970-2" d="M57.97 9.151v46.281l40.08 23.14 40.08-23.141V9.151L98.05-13.99z" class="cls-2" transform="translate(102.815 639.967)"/>
                <path id="Path_14972-2" d="M57.97 9.151v46.281l40.08 23.14 40.08-23.141V9.151L98.05-13.99z" class="cls-2" transform="translate(63.071 709.52)"/>
                <path id="Path_14975-2" d="M57.97 9.151v46.281l40.08 23.14 40.08-23.141V9.151L98.05-13.99z" class="cls-2" transform="translate(23.326 779.073)"/>
                <path id="Path_14976-2" d="M57.97 9.151v46.281l40.08 23.14 40.08-23.141V9.151L98.05-13.99z" class="cls-2" transform="translate(143.463 848.626)"/>
                <path id="Path_14973-2" d="M57.97 9.151v46.281l40.08 23.14 40.08-23.141V9.151L98.05-13.99z" class="cls-2" transform="translate(-17.322 709.52)"/>
                <path id="Path_14974-2" d="M57.97 9.151v46.281l40.08 23.14 40.08-23.141V9.151L98.05-13.99z" class="cls-2" transform="translate(-57.97 639.967)"/>
                <path id="Path_14971-2" d="M57.97 9.151v46.281l40.08 23.14 40.08-23.141V9.151L98.05-13.99z" class="cls-1" transform="translate(63.071 570.414)"/>
                <path id="Path_14962-2" d="M57.97 9.151v46.281l40.08 23.14 40.08-23.141V9.151L98.05-13.99z" class="cls-1" transform="translate(223.855 709.52)"/>
                <path id="Path_14963-2" d="M57.97 9.151v46.281l40.08 23.14 40.08-23.141V9.151L98.05-13.99z" class="cls-1" transform="translate(263.6 779.073)"/>
                <path id="Path_14965-2" d="M57.97 9.151v46.281l40.08 23.14 40.08-23.141V9.151L98.05-13.99z" class="cls-1" transform="translate(183.207 779.073)"/>
                <path id="Path_14957-2" d="M57.97 9.151v46.281l40.08 23.14 40.08-23.141V9.151L98.05-13.99z" class="cls-2" transform="translate(423.482 500.861)"/>
                <path id="Path_14952-2" d="M57.97 9.151v46.281l40.08 23.14 40.08-23.141V9.151L98.05-13.99z" class="cls-1" transform="translate(262.697 361.755)"/>
                <path id="Path_1574-2" d="M57.97 9.151v46.281l40.08 23.14 40.08-23.141V9.151L98.05-13.99z" class="cls-1" transform="translate(383.401 153.096)"/>
                <path id="Path_1575-2" d="M57.97 9.151v46.281l40.08 23.14 40.08-23.141V9.151L98.05-13.99z" class="cls-2" transform="translate(303.344 153.096)"/>
                <path id="Path_14945-2" d="M57.97 9.151v46.281l40.08 23.14 40.08-23.141V9.151L98.05-13.99z" class="cls-2" transform="translate(183.207 222.649)"/>
                <path id="Path_14946-2" d="M57.97 9.151v46.281l40.08 23.14 40.08-23.141V9.151L98.05-13.99z" class="cls-2" transform="translate(222.952 292.202)"/>
                <path id="Path_14950-2" d="M57.97 9.151v46.281l40.08 23.14 40.08-23.141V9.151L98.05-13.99z" class="cls-2" transform="translate(423.481 361.755)"/>
                <path id="Path_14954-2" d="M57.97 9.151v46.281l40.08 23.14 40.08-23.141V9.151L98.05-13.99z" class="cls-3" transform="translate(302.441 431.308)"/>
                <path id="Path_14955-2" d="M57.97 9.151v46.281l40.08 23.14 40.08-23.141V9.151L98.05-13.99z" class="cls-2" transform="translate(262.697 500.861)"/>
                <path id="Path_14956-2" d="M57.97 9.151v46.281l40.08 23.14 40.08-23.141V9.151L98.05-13.99z" class="cls-2" transform="translate(343.089 500.861)"/>
                <path id="Path_14958-2" d="M57.97 9.151v46.281l40.08 23.14 40.08-23.141V9.151L98.05-13.99z" class="cls-1" transform="translate(303.344 570.414)"/>
                <path id="Path_14964-2" d="M57.97 9.151v46.281l40.08 23.14 40.08-23.141V9.151L98.05-13.99z" class="cls-2" transform="translate(143.463 570.414)"/>
                <path id="Path_14959-2" d="M57.97 9.151v46.281l40.08 23.14 40.08-23.141V9.151L98.05-13.99z" class="cls-2" transform="translate(343.089 639.967)"/>
                <path id="Path_14966-2" d="M57.97 9.151v46.281l40.08 23.14 40.08-23.141V9.151L98.05-13.99z" class="cls-2" transform="translate(383.401 709.52)"/>
                <path id="Path_14967-2" d="M57.97 9.151v46.281l40.08 23.14 40.08-23.141V9.151L98.05-13.99z" class="cls-2" transform="translate(343.657 779.073)"/>
                <path id="Path_14968-2" d="M57.97 9.151v46.281l40.08 23.14 40.08-23.141V9.151L98.05-13.99z" class="cls-2" transform="translate(303.912 848.626)"/>
                <path id="Path_14951-2" d="M57.97 9.151v46.281l40.08 23.14 40.08-23.141V9.151L98.05-13.99z" class="cls-2" transform="translate(423.481 222.649)"/>
                <path id="Path_14942-2" d="M57.97 9.151v46.281l40.08 23.14 40.08-23.141V9.151L98.05-13.99z" class="cls-2" transform="translate(222.952 153.096)"/>
                <path id="Path_1576-2" d="M57.97 9.151v46.281l40.08 23.14 40.08-23.141V9.151L98.05-13.99z" class="cls-1" transform="translate(262.697 83.543)"/>
                <path id="Path_14943-2" d="M57.97 9.151v46.281l40.08 23.14 40.08-23.141V9.151L98.05-13.99z" class="cls-1" transform="translate(302.441 13.99)"/>
            </g>
        </g>
        <g id="Group_684">
            <circle id="Ellipse_270" cx="4.5" cy="4.5" r="4.5" class="cls-5" transform="translate(1782 2515)"/>
            <circle id="Ellipse_271" cx="4.5" cy="4.5" r="4.5" class="cls-5" transform="translate(1827 2592)"/>
            <circle id="Ellipse_274" cx="4.5" cy="4.5" r="4.5" class="cls-5" transform="translate(1739 2746)"/>
            <circle id="Ellipse_272" cx="4.5" cy="4.5" r="4.5" class="cls-5" transform="translate(1782 2616)"/>
            <circle id="Ellipse_276" cx="4.5" cy="4.5" r="4.5" class="cls-5" transform="translate(1694 2770)"/>
            <circle id="Ellipse_273" cx="4.5" cy="4.5" r="4.5" class="cls-5" transform="translate(1738 2592)"/>
            <circle id="Ellipse_275" cx="4.5" cy="4.5" r="4.5" class="cls-5" transform="translate(1650 2746)"/>
            <circle id="Ellipse_277" cx="4.5" cy="4.5" r="4.5" class="cls-5" transform="rotate(180 762.5 1312.5)"/>
            <circle id="Ellipse_278" cx="4.5" cy="4.5" r="4.5" class="cls-5" transform="rotate(180 785 1300.5)"/>
            <circle id="Ellipse_279" cx="4.5" cy="4.5" r="4.5" class="cls-5" transform="rotate(180 807 1312.5)"/>
            <circle id="Ellipse_280" cx="4.5" cy="4.5" r="4.5" class="cls-5" transform="rotate(180 895.5 1158.5)"/>
            <circle id="Ellipse_281" cx="4.5" cy="4.5" r="4.5" class="cls-5" transform="rotate(180 918 1146.5)"/>
            <circle id="Ellipse_282" cx="4.5" cy="4.5" r="4.5" class="cls-5" transform="rotate(180 940 1158.5)"/>
            <circle id="Ellipse_283" cx="4.5" cy="4.5" r="4.5" class="cls-5" transform="rotate(180 807 1082)"/>
            <circle id="Ellipse_284" cx="4.5" cy="4.5" r="4.5" class="cls-5" transform="rotate(180 829.5 1070)"/>
            <circle id="Ellipse_285" cx="4.5" cy="4.5" r="4.5" class="cls-5" transform="rotate(180 851.5 1082)"/>
            <circle id="Ellipse_286" cx="4.5" cy="4.5" r="4.5" class="cls-5" transform="rotate(180 873 1043.5)"/>
            <circle id="Ellipse_287" cx="4.5" cy="4.5" r="4.5" class="cls-5" transform="rotate(180 895.5 1031.5)"/>
            <circle id="Ellipse_288" cx="4.5" cy="4.5" r="4.5" class="cls-5" transform="rotate(180 917.5 1043.5)"/>
            <circle id="Ellipse_289" cx="4.5" cy="4.5" r="4.5" class="cls-5" transform="translate(1561 1977)"/>
            <circle id="Ellipse_290" cx="4.5" cy="4.5" r="4.5" class="cls-5" transform="translate(1516 2001)"/>
            <circle id="Ellipse_291" cx="4.5" cy="4.5" r="4.5" class="cls-5" transform="translate(1472 1977)"/>
        </g>
    </g>
</svg>
