<?xml version="1.0" encoding="utf-8"?>
<!-- Generator: Adobe Illustrator 24.0.1, SVG Export Plug-In . SVG Version: 6.00 Build 0)  -->
<svg version="1.1" id="Layer_1" xmlns="http://www.w3.org/2000/svg" xmlns:xlink="http://www.w3.org/1999/xlink" x="0px" y="0px"
	 viewBox="0 0 493.8 272.5" style="enable-background:new 0 0 493.8 272.5;" xml:space="preserve">
<style type="text/css">
	.st0{fill:#062870;}
	.st1{fill:#767888;}
</style>
<g>
	<path class="st0" d="M473.4,70v28.1c0,8.7-7,15.7-15.7,15.7c-8.7,0-15.7-7-15.7-15.7V70h-20.4v28.1c0,8.7-7,15.7-15.7,15.7
		c-8.7,0-15.7-7-15.7-15.7V70h-20.4v28.1c0,8.6-7,15.6-15.7,15.7h-6.2c7.3-17.1-0.6-37-17.7-44.3c-8.2-3.5-17.4-3.6-25.6-0.4
		l13.4-7.7l-10-17.5l-39,22.3c-11.4,6.5-18.2,15.2-20.8,24.3c-1.9,6.3-1.6,13.1,0.8,19.3c0.6,1.4,1.2,2.8,2,4.1l-9.9,0h-22.6
		c-8.4,0-15.3-6.9-15.3-15.3V0h-20.4v98.6c0,19.7,16,35.6,35.7,35.7H353l0,0c1.2,0,2.6,0,3.9-0.1c8.6-0.6,16.8-4.4,22.9-10.5
		c0.1-0.1,0.3-0.3,0.4-0.4c0.1,0.1,0.3,0.3,0.4,0.4c14,14.1,36.8,14.1,50.8,0.1c0,0,0.1-0.1,0.1-0.1c0.1-0.1,0.3-0.3,0.4-0.4
		c0.1,0.1,0.3,0.3,0.4,0.4c14.1,14.1,36.9,14,51-0.1c6.7-6.7,10.5-15.9,10.5-25.4V70H473.4z M296.3,74c-12.1,9.5-16.3,25.9-10.2,40
		h-0.8c-4.3-0.8-8.4-2.6-12.1-5c-2.4-1.6-4.2-3.8-5.4-6.4c-0.8-2-0.9-4.3-0.3-6.4c1.2-4.2,5-8.6,11.5-12.3L296.3,74
		C296.3,74,296.3,74,296.3,74L296.3,74L296.3,74z M319.3,113.9l-4.4,0c-7.4-1.2-12.4-8.2-11.1-15.6c1.1-6.5,6.7-11.3,13.3-11.3l0,0
		c7.5,0,13.5,6.1,13.5,13.5C330.6,107.2,325.8,112.8,319.3,113.9z"/>
	<ellipse transform="matrix(0.9732 -0.2298 0.2298 0.9732 5.4905 99.6976)" class="st0" cx="430.9" cy="26.3" rx="10.3" ry="10.3"/>
	<path class="st0" d="M420.7,59.7H441c5.6,0,10.1-4.5,10.1-10.1c0-5.6-4.5-10.1-10.1-10.1h-20.3c-5.6,0-10.1,4.5-10.1,10.1
		C410.6,55.1,415.2,59.7,420.7,59.7z"/>
	<path class="st0" d="M83.2,144.6c-5.7,0-10.3,4.6-10.3,10.3c0,0,0,0,0,0c0,5.7,4.6,10.3,10.3,10.3s10.3-4.6,10.3-10.3
		C93.5,149.2,88.9,144.6,83.2,144.6z"/>
	<path class="st0" d="M146.1,98.8c0,8.4-6.8,15.2-15.2,15.2H35.4c-8.4,0-15.2-6.8-15.2-15.2V70H0v28.8c0,19.5,15.9,35.4,35.4,35.4
		h95.5c19.5,0,35.4-15.9,35.4-35.4V70h-20.2V98.8z"/>
</g>
<g>
	<rect x="475.3" y="222.8" transform="matrix(0.7062 -0.708 0.708 0.7062 -19.1665 404.4777)" class="st1" width="5.1" height="5"/>
	<polygon class="st1" points="476.4,232.1 472.5,228.3 468.7,232.2 472.5,236 	"/>
	<polygon class="st1" points="482.9,235.9 486.6,232.1 486.6,232.1 482.8,228.2 478.9,232.1 	"/>
	<path class="st1" d="M22.7,245.7c0.8-0.8,1.8-1.4,2.9-1.8c1.2-0.4,2.4-0.6,3.6-0.6c0.6,0,1.1,0,1.7,0.1c0.6,0.1,1.2,0.2,1.9,0.4
		l1.3-5.1c-0.9-0.2-1.7-0.4-2.5-0.5c-0.8-0.1-1.5-0.2-2.3-0.2c-1.7,0-3.4,0.2-5.1,0.8c-1.5,0.5-2.8,1.2-4,2.1
		c-2.2,1.7-3.8,4.1-4.6,6.7c-0.3,1.2-0.5,2.3-0.5,3.5c0,0.4,0,0.7,0,1.1c0.1,1.6,0.5,3.1,1.1,4.6c0.5,0.1,1.1,0.3,1.8,0.5
		c0.6,0.2,1.3,0.3,1.9,0.5c0.7,0.2,1.3,0.4,2,0.5c0.7,0.2,1.3,0.3,1.9,0.5c1.4,0.4,2.8,0.8,4.3,1.2c0,1.1-0.1,2.2-0.5,3.3
		c-0.3,0.9-0.9,1.6-1.6,2.2c-0.8,0.6-1.8,1-2.8,1.2c-1.3,0.3-2.6,0.4-4,0.4l-5,0c-1.5,0-3-0.3-4.4-1c-1.3-0.6-2.4-1.7-3.1-2.9
		c-1.1-1.8-1.6-3.9-1.6-6.1c0-1.8,0.3-3.6,0.8-5.3c0.6-2.1,1.4-4.2,2.4-6.2l-4.6-2.3c-1.2,2.4-2.1,4.8-2.8,7.4
		c-0.6,2.1-0.9,4.3-0.9,6.5c-0.1,3.1,0.7,6.1,2.3,8.8c0.6,1,1.4,1.9,2.3,2.7c0.8,0.8,1.8,1.5,2.8,2c1,0.6,2.1,1,3.3,1.3
		c1.2,0.3,2.4,0.4,3.7,0.4h5c2.2,0,4.3-0.2,6.4-0.8c1.6-0.5,3.1-1.3,4.3-2.4c1.1-1.1,2-2.5,2.4-4c0.5-1.8,0.8-3.7,0.7-5.6
		c0-1.1-0.3-2.3-1-3.2c-0.8-0.9-1.9-1.6-3.1-1.8c-0.9-0.2-1.8-0.4-2.6-0.6s-1.5-0.4-2.2-0.5c-0.7-0.2-1.3-0.4-2-0.5
		c-0.6-0.2-1.3-0.3-2-0.5c0-0.3,0-0.6,0-1c0-1,0.2-1.9,0.5-2.8C21.3,247.5,21.9,246.5,22.7,245.7z"/>
	<path class="st1" d="M68.7,254L68.7,254L68.7,254C68.7,254,68.7,254,68.7,254z"/>
	<path class="st1" d="M93.3,246c-0.1-0.8-0.2-1.5-0.4-2.3c-0.1-0.7-0.3-1.4-0.4-2.1s-0.2-1.1-0.3-1.6s-0.2-0.7-0.2-0.8l0,0l-4.9,1.5
		c0.1,0.2,0.1,0.6,0.3,1c0.1,0.4,0.2,0.9,0.3,1.5c0.1,0.6,0.2,1.2,0.4,1.8c0.1,0.6,0.2,1.3,0.3,1.9s0.2,1.2,0.2,1.7
		c0.1,0.4,0.1,0.9,0.1,1.3c0,0.8-0.1,1.5-0.4,2.2c-0.2,0.5-0.6,0.9-1,1.2c-0.4,0.2-0.8,0.4-1.2,0.5c-0.3,0.1-0.6,0.1-0.9,0.1H58.8v0
		h-0.5c-0.3,0-0.6-0.1-0.9-0.1c-0.5-0.1-0.9-0.3-1.3-0.5c-0.5-0.3-0.9-0.7-1.2-1.1c-0.4-0.6-0.5-1.3-0.5-2v-7.5h-5.2v14.9
		c0,1.4-0.2,2.9-0.5,4.3c-0.3,1.1-0.9,2.1-1.7,2.9c-0.8,0.8-1.8,1.3-2.9,1.6c-1.3,0.4-2.7,0.5-4.1,0.5h-3.3v5.2H40c2,0,4-0.3,5.9-1
		c3.4-1.2,6.1-3.8,7.4-7.2c0.7-1.8,1.1-3.8,1.2-5.8c0.5,0.5,1.2,0.8,1.9,1c0.6,0.1,1.3,0.2,2,0.2l20.7,0h5.9c1.1,0,2.1-0.2,3.2-0.6
		c1-0.4,2-0.9,2.8-1.7c0.9-0.8,1.6-1.8,2-2.9c0.6-1.3,0.8-2.7,0.8-4.1c0-0.6,0-1.2-0.1-1.9C93.5,247.5,93.4,246.8,93.3,246z"/>
	<polygon class="st1" points="83.5,267.6 83.5,267.6 87.5,271.7 91.5,267.7 87.4,263.6 	"/>
	<path class="st1" d="M334.6,247.2c-0.3-0.8-0.7-1.5-1.2-2.2c-0.3-0.3-0.6-0.8-1-1.3s-0.9-1.1-1.4-1.7c-0.5-0.6-1-1.3-1.5-2
		c-0.5-0.7-1-1.4-1.5-2c-1.2-1.6-2.4-3.2-3.7-4.9l-4.1,3.1c1.5,1.9,3,3.7,4.3,5.3c1.4,1.7,2.5,3.2,3.5,4.6c0.8,1.1,1.5,2.2,2.1,3.4
		c0.3,0.7,0.5,1.4,0.6,2.2c0,0.3,0,0.5-0.1,0.8c-0.2,0.6-0.5,1.1-0.9,1.5c-0.4,0.4-0.9,0.7-1.4,0.9c-0.5,0.2-1.1,0.4-1.6,0.5
		c-0.5,0.1-1.1,0.1-1.6,0.1c-0.6,0-1.3-0.1-1.9-0.2c-0.6-0.1-1.2-0.3-1.8-0.5c1.1-1,2-2.1,2.6-3.4c0.6-1.3,1-2.8,0.9-4.3
		c0-0.7-0.1-1.3-0.3-1.9c-0.2-0.7-0.5-1.4-0.8-2c-0.4-0.7-0.8-1.3-1.3-1.9c-0.5-0.6-1.2-1.2-1.8-1.6c-0.7-0.5-1.5-0.8-2.3-1.1
		c-0.9-0.3-1.8-0.4-2.8-0.4c-1.3,0-2.5,0.2-3.7,0.6c-1.1,0.4-2.1,1-3,1.8c-0.8,0.7-1.5,1.7-2,2.7c-0.5,1.1-0.7,2.3-0.7,3.5
		c0,1.4,0.3,2.7,0.8,4c0.6,1.2,1.3,2.3,2.2,3.2c-0.8,0.1-1.6,0.1-2.4,0.1s-1.6,0-2.5,0h-2.7v0h-3.4v-3.9c0-1.9-0.2-3.8-0.8-5.7
		c-0.5-1.5-1.4-2.8-2.5-3.9c-0.8-0.7-1.7-1.3-2.8-1.6c-1.1-0.4-2.2-0.6-3.3-0.6c-1.3,0-2.6,0.2-3.8,0.8c-1.2,0.5-2.2,1.2-3.1,2.1
		c-0.4,0.4-0.7,0.8-1,1.3c-0.4,0.5-0.7,1.1-1,1.8c-0.3,0.7-0.5,1.5-0.7,2.3c-0.2,1-0.3,1.9-0.3,2.9c0,1.6,0.3,3.2,0.9,4.7
		c0.6,1.2,1.4,2.2,2.4,3c1,0.8,2.1,1.3,3.2,1.6c1.1,0.3,2.3,0.5,3.5,0.5h4c0,0.6-0.1,1.2-0.2,1.8c-0.1,0.5-0.2,1-0.4,1.5
		c-0.2,0.4-0.4,0.8-0.7,1.2c-0.3,0.4-0.6,0.7-1,1c-1.1,0.8-2.4,1.4-3.7,1.6c-2,0.4-4,0.6-6.1,0.5l0,0v5.2c1.4,0,2.9-0.1,4.3-0.2
		c1.2-0.1,2.4-0.3,3.5-0.6c1-0.2,2-0.6,2.9-1c0.8-0.4,1.6-0.9,2.4-1.5c1.3-1,2.4-2.4,3.1-3.9c0.7-1.8,1.1-3.7,1.1-5.6h4.4v0h1.7
		c3.8,0.1,7.6-0.4,11.3-1.4c0.2,0.1,0.4,0.2,0.7,0.3c0.3,0.1,0.5,0.2,0.8,0.4c0.3,0.1,0.6,0.3,0.9,0.4c1.2,0.6,2.4,1,3.7,1.3
		c1.1,0.2,2.3,0.3,3.5,0.3c1.2,0,2.4-0.1,3.6-0.4c1-0.3,2-0.7,2.9-1.3c0.8-0.5,1.6-1.2,2.2-2c0.6-0.8,1-1.6,1.3-2.5
		c0.2-0.6,0.3-1.2,0.4-1.9c0-0.5,0.1-1,0.1-1.3c0-0.5,0-1-0.1-1.6C335.1,248.8,334.9,248,334.6,247.2z M292.7,254h-4
		c-0.1,0-0.3,0-0.6,0c-0.3,0-0.5-0.1-0.8-0.1c-0.3-0.1-0.6-0.1-0.9-0.3c-0.3-0.1-0.6-0.2-0.9-0.4c-0.5-0.4-1-0.8-1.3-1.4
		c-0.3-0.7-0.5-1.5-0.4-2.3c-0.1-1.6,0.3-3.1,1.2-4.4c0.8-1,2.1-1.6,3.4-1.5v0c0.2,0,0.4,0,0.7,0c0.3,0,0.6,0.1,0.9,0.2
		c0.3,0.1,0.7,0.3,0.9,0.6c0.4,0.3,0.6,0.7,0.9,1.1c0.3,0.6,0.5,1.2,0.6,1.9c0.2,0.9,0.3,1.9,0.2,2.8V254z M319.4,248.9
		c-0.2,0.6-0.5,1.1-0.9,1.6c-0.4,0.5-0.8,0.9-1.3,1.3c-0.5,0.4-1,0.7-1.6,1c-1.4-0.7-2.6-1.6-3.6-2.7c-0.8-0.9-1.2-2.1-1.2-3.4l0,0
		c0-0.5,0.1-1,0.4-1.5c0.2-0.5,0.6-0.9,1-1.2c0.4-0.4,0.9-0.7,1.4-0.9c0.5-0.2,1.1-0.3,1.7-0.3c0.5,0,0.9,0.1,1.4,0.3
		c1.1,0.4,2,1.2,2.6,2.2c0.3,0.6,0.5,1.3,0.5,1.9C319.7,247.7,319.6,248.3,319.4,248.9z"/>
	<polygon class="st1" points="324.2,233.1 324.2,233.1 324.2,233.1 	"/>
	<rect x="99.8" y="224.8" class="st1" width="5.2" height="34.5"/>
	<path class="st1" d="M492.8,248c-0.1-0.7-0.2-1.4-0.3-2.2c-0.1-0.7-0.3-1.5-0.4-2.2s-0.3-1.4-0.4-2c-0.1-0.6-0.3-1.1-0.4-1.5
		s-0.2-0.7-0.2-0.8l-4.9,1.6c0.1,0.2,0.1,0.6,0.3,1c0.1,0.4,0.2,0.9,0.3,1.5s0.2,1.1,0.4,1.7s0.2,1.2,0.3,1.8s0.2,1.1,0.2,1.7
		c0.1,0.4,0.1,0.9,0.1,1.3c0,0.8-0.1,1.5-0.4,2.2c-0.2,0.5-0.6,0.9-1,1.3c-0.3,0.3-0.7,0.5-1.2,0.6c-0.3,0.1-0.6,0.1-1,0.1
		c-1.2,0.1-2.4-0.2-3.4-1c-0.8-0.9-1.1-2-1-3.2v-7.2h-5.2v7.2c0,0.8-0.1,1.5-0.4,2.2c-0.3,0.5-0.6,0.9-1,1.2
		c-0.4,0.3-0.8,0.4-1.2,0.5c-0.3,0.1-0.6,0.1-0.9,0.1c-1.2,0.1-2.4-0.2-3.3-1c-0.7-0.9-1.1-2-1-3.1v-7.2h-5.2v7.3
		c0,0.8-0.1,1.5-0.4,2.2c-0.3,0.5-0.6,0.9-1,1.2c-0.4,0.3-0.8,0.4-1.2,0.5c-0.3,0.1-0.6,0.1-0.9,0.1h-4v0l-1.7,0c-0.1,0-0.3,0-0.5,0
		c-0.3,0-0.5-0.1-0.8-0.1c-0.3-0.1-0.6-0.2-0.9-0.3c-0.3-0.1-0.6-0.3-0.8-0.6c-0.3-0.3-0.5-0.6-0.6-0.9c-0.2-0.4-0.3-0.9-0.3-1.4
		v-7.9h-5.2v8.1c0,0.4-0.1,0.7-0.2,1.1c-0.1,0.4-0.3,0.8-0.6,1c-0.4,0.4-0.9,0.6-1.4,0.8c-0.8,0.2-1.7,0.3-2.5,0.3l-3.9,0h-20.1v0
		h-0.7c-1,0-1.9-0.1-2.9-0.5c-0.9-0.3-1.7-0.8-2.4-1.4c-0.8-0.7-1.6-1.5-2.3-2.3c-0.7-0.9-1.6-2-2.5-3.2l-9.2-12.3l18.9-8.7
		l-2.2-4.8l-21.5,9.9l-0.9,4.5c0.6,0.7,1.3,1.5,2,2.3c0.7,0.9,1.5,1.8,2.2,2.7c0.8,0.9,1.5,1.9,2.2,2.9s1.4,1.9,1.9,2.8
		c0.5,0.8,0.9,1.6,1.3,2.4c0.3,0.6,0.5,1.2,0.5,1.8c0,0.2,0,0.5-0.1,0.7c0,0.2-0.1,0.4-0.2,0.6c-0.3,0.4-0.6,0.8-1.1,1.1
		c-0.5,0.4-1.1,0.6-1.7,0.8c-0.7,0.2-1.4,0.4-2.1,0.5c-0.8,0.1-1.6,0.2-2.4,0.2h-6.7v0h-1.1c-0.7,0-1.3-0.1-2-0.2
		c-0.8-0.1-1.5-0.4-2.2-0.7c-0.7-0.4-1.4-0.9-2-1.6c-0.7-0.8-1.1-1.7-1.3-2.8l-4.3-17.2l-5,1.2c0.1,0.4,0.1,0.8,0.2,1.1
		c0.1,0.4,0.2,0.7,0.2,1.2c-1.5,0.5-3,1.1-4.4,1.8c-1.4,0.7-2.6,1.6-3.8,2.7c-1.1,1-2,2.2-2.6,3.6c-0.7,1.4-1,3-1,4.6
		c0,1.1,0.2,2.3,0.5,3.3c0.3,1,0.8,1.9,1.5,2.7c0.6,0.8,1.4,1.4,2.2,2c0.8,0.5,1.6,0.9,2.5,1.1c0.8,0.2,1.5,0.3,2.3,0.3
		c0.3,0,0.6,0,1,0c1.1-0.1,2.2-0.4,3.2-0.8c0.8-0.3,1.5-0.8,2.2-1.3c0.6-0.5,1.1-1.1,1.5-1.9c0.4,1,1,1.9,1.8,2.7
		c0.8,0.8,1.6,1.4,2.6,1.9c1,0.5,2.1,0.9,3.2,1.2c1.2,0.3,2.4,0.4,3.6,0.4h1.1l0,0l6.3,0c1.2,0,2.4-0.1,3.7-0.3
		c1.1-0.2,2.2-0.5,3.2-0.9c1.1-0.5,2-1.1,2.9-1.9c0.4-0.4,0.8-0.8,1.1-1.2c0.3-0.4,0.6-0.8,0.9-1.3c0.7,0.8,1.4,1.6,2.1,2.3
		c0.7,0.7,1.5,1.3,2.3,1.8c0.9,0.5,1.8,0.9,2.8,1.2c1.2,0.3,2.4,0.4,3.7,0.4l0.7,0h20.1v0l3.9,0c1.4,0,2.8-0.2,4.2-0.6
		c1.2-0.4,2.2-0.9,3.1-1.7c0.8,0.8,1.7,1.4,2.7,1.7c1.2,0.4,2.5,0.6,3.8,0.6h1.7l4,0c1.1,0,2.2-0.2,3.3-0.6c1.1-0.4,2.1-1,2.9-1.8
		c0.8,0.8,1.9,1.4,3,1.8c1.3,0.4,2.6,0.6,4,0.6l0,0c1.1,0,2.2-0.2,3.3-0.6c1.1-0.4,2.1-1,2.9-1.8c0.9,0.8,1.9,1.4,3,1.8
		c1.3,0.4,2.6,0.7,4,0.6c1.1,0,2.1-0.2,3.1-0.6c1-0.4,2-1,2.8-1.7c0.9-0.8,1.5-1.8,2-2.9c0.6-1.3,0.8-2.7,0.8-4.1
		C492.9,249.3,492.9,248.6,492.8,248z M369.8,247.6L369.8,247.6c-0.1,0.9-0.5,1.7-1.1,2.3c-0.6,0.6-1.3,1.1-2.2,1.4
		c-0.6,0.2-1.3,0.3-1.9,0.3h-0.2c-0.7,0-1.4-0.2-2.1-0.5c-0.6-0.3-1.1-0.8-1.5-1.3c-0.4-0.6-0.6-1.4-0.6-2.1c0-1.7,0.8-3.3,2.2-4.4
		c1.8-1.5,4-2.6,6.2-3.2c0.1,0.6,0.3,1.2,0.4,1.9s0.3,1.3,0.5,1.9c0.1,0.6,0.2,1.2,0.3,1.6c0,0.3,0.1,0.7,0.1,1
		C369.9,246.9,369.8,247.3,369.8,247.6z"/>
	<polygon class="st1" points="439.3,267.9 443.3,271.9 447.4,267.9 443.3,263.8 	"/>
	<polygon class="st1" points="439.3,267.9 439.3,267.9 439.3,267.9 	"/>
	<polygon class="st1" points="263.4,235.9 267.2,232.1 263.3,228.2 259.4,232.1 	"/>
	<polygon class="st1" points="261.9,225.3 258.3,221.8 254.7,225.4 258.3,228.9 	"/>
	<polygon class="st1" points="169.3,231.7 165.3,227.7 161.3,231.7 161.3,231.7 165.3,235.7 	"/>
	<polygon class="st1" points="256.9,232.2 253.1,228.3 249.2,232.2 253.1,236 	"/>
	<polygon class="st1" points="261.9,225.3 261.9,225.3 261.9,225.3 	"/>
	<path class="st1" d="M273,245.9c-0.1-0.8-0.3-1.5-0.4-2.2c-0.1-0.7-0.3-1.4-0.4-2c-0.1-0.6-0.3-1.1-0.4-1.5
		c-0.1-0.4-0.2-0.7-0.2-0.8l-4.9,1.6c0.1,0.2,0.2,0.6,0.3,1c0.1,0.4,0.2,0.9,0.3,1.5c0.1,0.5,0.2,1.1,0.4,1.7
		c0.1,0.6,0.2,1.2,0.3,1.8c0.1,0.6,0.2,1.1,0.2,1.7c0.1,0.4,0.1,0.9,0.1,1.3c0,0.8-0.1,1.5-0.4,2.2c-0.2,0.5-0.6,0.9-1,1.3
		c-0.3,0.3-0.7,0.5-1.2,0.6c-0.3,0.1-0.6,0.1-1,0.1c-1.2,0.1-2.4-0.2-3.4-1c-0.8-0.9-1.1-2-1-3.2v-7.2h-5.2v7.2
		c0,0.8-0.1,1.5-0.4,2.2c-0.3,0.5-0.6,0.9-1,1.2c-0.4,0.3-0.8,0.4-1.2,0.5c-0.3,0.1-0.6,0.1-0.9,0.1c-1.2,0.1-2.4-0.2-3.3-1
		c-0.7-0.9-1.1-2-1-3.1v-7.2h-5.2v7.3c0,0.8-0.1,1.5-0.4,2.2c-0.3,0.5-0.6,0.9-1,1.2c-0.4,0.3-0.8,0.4-1.2,0.5
		c-0.3,0.1-0.6,0.1-0.9,0.1H233l0.9,5.2h4.4c1.1,0,2.2-0.2,3.3-0.6c1.1-0.4,2.1-1,2.9-1.9c0.9,0.8,1.9,1.4,3,1.8
		c1.3,0.4,2.6,0.6,4,0.6l0,0c1.1,0,2.2-0.2,3.3-0.6c1.1-0.4,2.1-1,2.9-1.8c0.9,0.8,1.9,1.4,3,1.8c1.3,0.4,2.6,0.7,4,0.6
		c1.1,0,2.1-0.2,3.1-0.6c1-0.4,2-1,2.8-1.7c0.9-0.8,1.5-1.8,2-2.9c0.5-1.3,0.8-2.7,0.8-4.1c0-0.6,0-1.2-0.1-1.8
		C273.2,247.3,273.1,246.6,273,245.9z"/>
	<path class="st1" d="M203,254h-0.1c-0.3,0-0.7-0.1-1-0.1c-0.5-0.1-1-0.3-1.4-0.5c-0.5-0.3-1-0.7-1.3-1.2c-0.4-0.7-0.6-1.5-0.6-2.3
		c0-1.4-0.2-2.8-0.6-4.2c-0.4-1.3-1-2.5-1.8-3.5c-0.8-1-1.8-1.8-3-2.4c-1.3-0.6-2.8-0.9-4.2-0.9c-1,0-1.9,0.1-2.9,0.4
		c-0.8,0.3-1.5,0.7-2.2,1.2c-0.6,0.5-1.2,1.1-1.7,1.7c-0.5,0.7-0.9,1.4-1.2,2.1c-0.3,0.7-0.6,1.5-0.9,2.3c-0.3,0.8-0.5,1.5-0.7,2.3
		c-0.2,0.7-0.4,1.4-0.6,2c-0.2,0.6-0.4,1.1-0.7,1.6c-0.2,0.4-0.5,0.8-0.8,1.1c-0.3,0.3-0.7,0.4-1.1,0.4h-2.8v0c-0.1,0-0.3,0-0.5,0
		c-0.3,0-0.5-0.1-0.8-0.1c-0.3-0.1-0.6-0.2-0.9-0.3c-0.3-0.1-0.6-0.3-0.8-0.6c-0.3-0.3-0.5-0.6-0.6-0.9c-0.2-0.4-0.3-0.9-0.3-1.4
		v-7.9h-5.2v8.1c0,0.4-0.1,0.7-0.1,1.1c-0.1,0.4-0.3,0.8-0.6,1c-0.4,0.4-0.9,0.6-1.4,0.8c-0.8,0.2-1.7,0.3-2.5,0.3h-3.5l0.1,0h-0.1
		v0l-0.5,0c-0.7,0-1.4-0.3-1.9-0.8c-0.7-0.6-1.4-1.2-1.9-1.9c-0.6-0.8-1.2-1.5-1.8-2.4c-0.6-0.8-1.1-1.6-1.6-2.3
		c-1.1-1.6-2-3-2.9-4.4c-0.9-1.4-1.7-2.5-2.3-3.5c-0.6-1-1.2-1.8-1.5-2.4l-0.6-0.9l-1.5-2.2l-4.4,2.9l1.4,2.2l0,0
		c0.1,0.2,0.2,0.4,0.4,0.6c0.3,0.5,0.8,1.2,1.5,2.2c0.7,1,1.5,2.3,2.5,3.8c1,1.5,2.1,3.3,3.4,5.2c0.4,0.6,0.7,1.2,0.7,1.9v0.2
		c-0.1,0.5-0.4,1-0.9,1.2c-0.7,0.3-1.4,0.5-2.2,0.6c-1,0.1-2.1,0.2-3.1,0.2c-0.6,0-1.3,0-1.9-0.1c-0.6-0.1-1.3-0.1-1.8-0.2
		c-0.6-0.1-1.1-0.2-1.6-0.4c-0.5-0.1-0.9-0.3-1.3-0.6l-2.3-1.3l-2.6,4.5l2.3,1.3c0.5,0.3,1.1,0.5,1.6,0.8c0.6,0.2,1.1,0.4,1.7,0.5
		c0.6,0.1,1.1,0.3,1.7,0.3c0.5,0.1,1,0.1,1.5,0.2c0.9,0.1,1.9,0.1,2.8,0.1c0.7,0,1.3,0,1.9-0.1c0.6,0,1.2-0.1,1.8-0.2
		c1.5-0.2,3-0.6,4.4-1.3c0.7-0.4,1.4-0.9,1.9-1.6c1.6,1.7,3.8,2.7,6.2,2.8l1,0h3.4c1.4,0,2.8-0.2,4.2-0.6c1.2-0.4,2.2-0.9,3.1-1.7
		c0.8,0.8,1.7,1.4,2.7,1.7c1.2,0.4,2.5,0.6,3.8,0.6l3,0c1.9,0,3.6-0.8,4.9-2.2c1,0.5,1.9,1,2.7,1.4c0.8,0.4,1.6,0.8,2.3,1.1
		c0.7,0.3,1.4,0.5,2.2,0.7c0.7,0.2,1.5,0.2,2.3,0.2c1,0,2.1-0.2,3-0.7c1.2-0.6,2.1-1.5,2.9-2.6c0.9,0.6,1.8,1.1,2.8,1.5
		c1.1,0.4,2.2,0.7,3.4,0.6l0,0h31L233,254L203,254z M193.7,252.2c-0.1,0.5-0.2,1-0.5,1.5c-0.2,0.3-0.4,0.6-0.6,0.9
		c-0.2,0.2-0.4,0.3-0.7,0.4c-0.2,0.1-0.4,0.1-0.6,0.2c-0.2,0-0.3,0-0.4,0l-0.1,0c-0.5,0-1-0.1-1.4-0.2c-0.6-0.2-1.3-0.4-1.9-0.7
		c-0.6-0.3-1.3-0.6-2-0.9c-0.7-0.3-1.3-0.7-1.9-1c0.2-0.5,0.3-1.1,0.5-1.7c0.2-0.6,0.3-1.2,0.5-1.8c0.2-0.6,0.4-1.2,0.7-1.7
		c0.2-0.5,0.5-1,0.9-1.5c0.3-0.4,0.8-0.8,1.2-1c0.5-0.3,1.1-0.4,1.7-0.4c0.6,0,1.2,0.1,1.8,0.4c0.5,0.2,0.9,0.5,1.3,0.9
		c0.4,0.4,0.6,0.8,0.9,1.2c0.2,0.4,0.4,0.9,0.5,1.3c0.1,0.4,0.2,0.8,0.3,1.2c0,0.3,0.1,0.5,0.1,0.8
		C193.9,250.6,193.8,251.4,193.7,252.2z"/>
</g>
</svg>
