<svg xmlns="http://www.w3.org/2000/svg" width="22.445" height="32" viewBox="0 0 22.445 32">
    <defs>
        <style>
            .cls-1{fill:#baddfe}
        </style>
    </defs>
    <g id="nerd" transform="translate(-22.443 -4.751)">
        <path id="Path_708" d="M58.6 50.02a2.411 2.411 0 0 0 2.657 0 .484.484 0 1 0-.511-.823 1.452 1.452 0 0 1-1.633 0 .484.484 0 1 0-.512.822z" class="cls-1" transform="translate(-26.268 -32.403)"/>
        <path id="Path_709" fill="#228ced" d="M44.376 25.779a2.092 2.092 0 0 0-1.582-.723h-.555v-.381a3.717 3.717 0 0 0-3.713-3.713H36.27c0-.025 0-.05-.009-.076l-.251-1.445a6.03 6.03 0 0 0 3.214-3.848 2.025 2.025 0 0 0 1.8-2 2 2 0 0 0-.714-1.524c.065-3.845-2.381-6.952-5.76-7.266-3.484-.326-5.34.986-6.286 2.142a6.54 6.54 0 0 0-1.315 5.181 1.993 1.993 0 0 0-.648 1.468 2.025 2.025 0 0 0 1.8 2 6.03 6.03 0 0 0 3.214 3.848l-.251 1.445c0 .025-.005.05-.009.075H28.8a3.717 3.717 0 0 0-3.713 3.713v.381h-.555a2.093 2.093 0 0 0-2.072 2.392l1.287 8.9a.473.473 0 0 0 .468.405h18.897a.473.473 0 0 0 .468-.405l1.286-8.9a2.092 2.092 0 0 0-.49-1.669zM29 7.542c1.165-1.424 3.005-2.027 5.467-1.8C37.284 6 39.34 8.6 39.37 11.847c-2.314.227-6.466-1.4-7.1-2.1a.472.472 0 0 0-.351-.156H31.9a.474.474 0 0 0-.357.192 5.707 5.707 0 0 1-3.686 2.039A5.735 5.735 0 0 1 29 7.542zm7.639 6.377a.743.743 0 1 1-.743-.743.743.743 0 0 1 .741.743zm-7.7 1.1a.471.471 0 0 0-.492-.362h-.1a1.082 1.082 0 0 1-1.091-1.069 1.053 1.053 0 0 1 .359-.79 7.038 7.038 0 0 0 4.38-2.079 13.851 13.851 0 0 0 3.6 1.536 1.692 1.692 0 0 0-1.317 1.187h-1.22a1.688 1.688 0 1 0 0 .945h1.22a1.687 1.687 0 1 0 2.652-1.8 8.589 8.589 0 0 0 2.746.174 1.058 1.058 0 0 1 .409.832 1.082 1.082 0 0 1-1.091 1.069h-.1a.47.47 0 0 0-.492.362 5.1 5.1 0 0 1-3.087 3.689h-.011a4.663 4.663 0 0 1-3.27 0h-.011a5.1 5.1 0 0 1-3.087-3.689zm3.248-1.1a.743.743 0 1 1-.743-.743.743.743 0 0 1 .736.743zm3.174 7.494a1.69 1.69 0 0 1-.922 1.43 1.722 1.722 0 0 1-1.528 0l-.027-.012a1.693 1.693 0 0 1-.9-1.422 1.618 1.618 0 0 1 .016-.362l.223-1.281a5.652 5.652 0 0 0 2.885 0l.223 1.281a1.62 1.62 0 0 1 .022.365zm-9.317 3.262a2.771 2.771 0 0 1 2.756-2.768h2.3a2.632 2.632 0 0 0 1.377 1.78l.032.015a2.628 2.628 0 0 0 3.727-1.795h2.292a2.771 2.771 0 0 1 2.768 2.768v.381h-15.26zm17.886 2.638l-1.23 8.493H24.628L23.4 27.313A1.148 1.148 0 0 1 24.536 26h18.258a1.148 1.148 0 0 1 1.136 1.312z"/>
        <path id="Path_710" d="M93.69 100.787a.485.485 0 0 0-.549.41l-.3 2.048a.485.485 0 0 0 .41.549.5.5 0 0 0 .07 0 .485.485 0 0 0 .479-.415l.3-2.048a.485.485 0 0 0-.41-.544z" class="cls-1" transform="translate(-51.472 -70.25)"/>
        <path id="Path_711" d="M60.158 95.595a1.176 1.176 0 0 1-.913-1.16.484.484 0 0 0-.371-.531 2.145 2.145 0 1 0 1.661 2.183.485.485 0 0 0-.377-.492zm-1.766 1.576a1.176 1.176 0 0 1-.083-2.35 2.131 2.131 0 0 0 1.191 1.567 1.172 1.172 0 0 1-1.108.783z" class="cls-1" transform="translate(-24.727 -65.236)"/>
    </g>
</svg>
