<svg xmlns="http://www.w3.org/2000/svg" width="2003.744" height="359.13" viewBox="0 0 2003.744 359.13">
    <defs>
        <style>
            .cls-2{fill:#fff;stroke:#e7e8f3}
        </style>
    </defs>
    <g id="back-1" transform="translate(-310.127 -3262.124)">
        <g id="Group_359" opacity="0.6" transform="translate(349 1713)">
            <path id="Path_1570" d="M57.97 37.446v24.928L102.342 87.5l44.372-25.124v-24.6z" class="cls-2" transform="translate(1773.658 1512.179)"/>
            <path id="Path_1598" d="M57.97 37.446v24.928L102.342 87.5l44.372-25.124v-24.6z" class="cls-2" transform="translate(1506.658 1512.179)"/>
            <path id="Path_1599" d="M57.97 37.446v24.928L102.342 87.5l44.372-25.124v-24.6z" class="cls-2" transform="translate(1417.658 1512.179)"/>
            <path id="Path_1600" d="M57.97 37.446v24.928L102.342 87.5l44.372-25.124v-24.6z" class="cls-2" transform="translate(1328.658 1512.179)"/>
            <path id="Path_1601" d="M57.97 37.446v24.928L102.342 87.5l44.372-25.124v-24.6z" class="cls-2" transform="translate(1239.658 1512.179)"/>
            <path id="Path_1602" d="M57.97 37.446v24.928L102.342 87.5l44.372-25.124v-24.6z" class="cls-2" transform="translate(1150.658 1512.179)"/>
            <path id="Path_1603" d="M57.97 37.446v24.928L102.342 87.5l44.372-25.124v-24.6z" class="cls-2" transform="translate(1061.658 1512.179)"/>
            <path id="Path_1604" d="M57.97 37.446v24.928L102.342 87.5l44.372-25.124v-24.6z" class="cls-2" transform="translate(972.658 1512.179)"/>
            <path id="Path_1605" d="M57.97 37.446v24.928L102.342 87.5l44.372-25.124v-24.6z" class="cls-2" transform="translate(883.658 1512.179)"/>
            <path id="Path_1606" d="M57.97 37.446v24.928L102.342 87.5l44.372-25.124v-24.6z" class="cls-2" transform="translate(794.658 1512.179)"/>
            <path id="Path_1607" d="M57.97 37.446v24.928L102.342 87.5l44.372-25.124v-24.6z" class="cls-2" transform="translate(705.658 1512.179)"/>
            <path id="Path_1608" d="M57.97 37.446v24.928L102.342 87.5l44.372-25.124v-24.6z" class="cls-2" transform="translate(616.658 1512.179)"/>
            <path id="Path_1609" d="M57.97 37.446v24.928L102.342 87.5l44.372-25.124v-24.6z" class="cls-2" transform="translate(527.658 1512.179)"/>
            <path id="Path_1610" d="M57.97 37.446v24.928L102.342 87.5l44.372-25.124v-24.6z" class="cls-2" transform="translate(438.658 1512.179)"/>
            <path id="Path_1611" d="M57.97 37.446v24.928L102.342 87.5l44.372-25.124v-24.6z" class="cls-2" transform="translate(349.658 1512.179)"/>
            <path id="Path_1612" d="M57.97 37.446v24.928L102.342 87.5l44.372-25.124v-24.6z" class="cls-2" transform="translate(260.658 1512.179)"/>
            <path id="Path_1613" d="M57.97 37.446v24.928L102.342 87.5l44.372-25.124v-24.6z" class="cls-2" transform="translate(171.658 1512.179)"/>
            <path id="Path_1614" d="M57.97 37.446v24.928L102.342 87.5l44.372-25.124v-24.6z" class="cls-2" transform="translate(82.658 1512.179)"/>
            <path id="Path_1615" d="M57.97 37.446v24.928L102.342 87.5l44.372-25.124v-24.6z" class="cls-2" transform="translate(-6.342 1512.179)"/>
            <path id="Path_1616" d="M57.97 37.446v24.928L102.342 87.5l44.372-25.124v-24.6z" class="cls-2" transform="translate(-95.342 1512.179)"/>
            <path id="Path_1596" d="M57.97 37.446v24.928L102.342 87.5l44.372-25.124v-24.6z" class="cls-2" transform="translate(1684.658 1512.179)"/>
            <path id="Path_1597" d="M57.97 37.446v24.928L102.342 87.5l44.372-25.124v-24.6z" class="cls-2" transform="translate(1595.658 1512.179)"/>
        </g>
        <g id="Group_360" opacity="0.4" transform="translate(349 1713)">
            <path id="Path_1577" d="M57.97 11.628v51.236l44.372 25.618 44.372-25.618V11.628L102.342-13.99z" class="cls-2" transform="translate(1728.658 1588.194)"/>
            <path id="Path_1580" d="M57.97 11.628v51.236l44.372 25.618 44.372-25.618V11.628L102.342-13.99z" class="cls-2" transform="translate(1283.658 1588.194)"/>
            <path id="Path_1585" d="M57.97 11.628v51.236l44.372 25.618 44.372-25.618V11.628L102.342-13.99z" class="cls-2" transform="translate(838.658 1588.194)"/>
            <path id="Path_1590" d="M57.97 11.628v51.236l44.372 25.618 44.372-25.618V11.628L102.342-13.99z" class="cls-2" transform="translate(393.658 1588.194)"/>
            <path id="Path_1578" d="M57.97 11.628v51.236l44.372 25.618 44.372-25.618V11.628L102.342-13.99z" class="cls-2" transform="translate(1817.658 1588.194)"/>
            <path id="Path_1579" d="M57.97 11.628v51.236l44.372 25.618 44.372-25.618V11.628L102.342-13.99z" class="cls-2" transform="translate(1372.658 1588.194)"/>
            <path id="Path_1584" d="M57.97 11.628v51.236l44.372 25.618 44.372-25.618V11.628L102.342-13.99z" class="cls-2" transform="translate(927.658 1588.194)"/>
            <path id="Path_1589" d="M57.97 11.628v51.236l44.372 25.618 44.372-25.618V11.628L102.342-13.99z" class="cls-2" transform="translate(482.658 1588.194)"/>
            <path id="Path_1581" d="M57.97 11.628v51.236l44.372 25.618 44.372-25.618V11.628L102.342-13.99z" class="cls-2" transform="translate(1194.658 1588.194)"/>
            <path id="Path_1586" d="M57.97 11.628v51.236l44.372 25.618 44.372-25.618V11.628L102.342-13.99z" class="cls-2" transform="translate(749.658 1588.194)"/>
            <path id="Path_1591" d="M57.97 11.628v51.236l44.372 25.618 44.372-25.618V11.628L102.342-13.99z" class="cls-2" transform="translate(304.658 1588.194)"/>
            <path id="Path_1574" d="M57.97 11.628v51.236l44.372 25.618 44.372-25.618V11.628L102.342-13.99z" class="cls-2" transform="translate(1550.658 1588.194)"/>
            <path id="Path_1582" d="M57.97 11.628v51.236l44.372 25.618 44.372-25.618V11.628L102.342-13.99z" class="cls-2" transform="translate(1105.658 1588.194)"/>
            <path id="Path_1587" d="M57.97 11.628v51.236l44.372 25.618 44.372-25.618V11.628L102.342-13.99z" class="cls-2" transform="translate(660.658 1588.194)"/>
            <path id="Path_1592" d="M57.97 11.628v51.236l44.372 25.618 44.372-25.618V11.628L102.342-13.99z" class="cls-2" transform="translate(215.658 1588.194)"/>
            <path id="Path_1595" d="M57.97 11.628v51.236l44.372 25.618 44.372-25.618V11.628L102.342-13.99z" class="cls-2" transform="translate(37.658 1588.194)"/>
            <path id="Path_1575" d="M57.97 11.628v51.236l44.372 25.618 44.372-25.618V11.628L102.342-13.99z" class="cls-2" transform="translate(1461.658 1588.194)"/>
            <path id="Path_1583" d="M57.97 11.628v51.236l44.372 25.618 44.372-25.618V11.628L102.342-13.99z" class="cls-2" transform="translate(1016.658 1588.194)"/>
            <path id="Path_1588" d="M57.97 11.628v51.236l44.372 25.618 44.372-25.618V11.628L102.342-13.99z" class="cls-2" transform="translate(571.658 1588.194)"/>
            <path id="Path_1593" d="M57.97 11.628v51.236l44.372 25.618 44.372-25.618V11.628L102.342-13.99z" class="cls-2" transform="translate(126.658 1588.194)"/>
            <path id="Path_1594" d="M57.97 11.628v51.236l44.372 25.618 44.372-25.618V11.628L102.342-13.99z" class="cls-2" transform="translate(-51.342 1588.194)"/>
            <path id="Path_1576" d="M57.97 11.628v51.236l44.372 25.618 44.372-25.618V11.628L102.342-13.99z" class="cls-2" transform="translate(1639.658 1588.194)"/>
        </g>
        <g id="Group_361" opacity="0.2" transform="translate(304 1790)">
            <path id="Path_1580-2" d="M57.97 11.628v51.236l44.372 25.618 44.372-25.618V11.628L102.342-13.99z" class="cls-2" transform="translate(1283.658 1588.194)"/>
            <path id="Path_1585-2" d="M57.97 11.628v51.236l44.372 25.618 44.372-25.618V11.628L102.342-13.99z" class="cls-2" transform="translate(838.658 1588.194)"/>
            <path id="Path_1578-2" d="M57.97 11.628v51.236l44.372 25.618 44.372-25.618V11.628L102.342-13.99z" class="cls-2" transform="translate(1817.658 1588.194)"/>
            <path id="Path_1579-2" d="M57.97 11.628v51.236l44.372 25.618 44.372-25.618V11.628L102.342-13.99z" class="cls-2" transform="translate(1372.658 1588.194)"/>
            <path id="Path_1584-2" d="M57.97 11.628v51.236l44.372 25.618 44.372-25.618V11.628L102.342-13.99z" class="cls-2" transform="translate(927.658 1588.194)"/>
            <path id="Path_1589-2" d="M57.97 11.628v51.236l44.372 25.618 44.372-25.618V11.628L102.342-13.99z" class="cls-2" transform="translate(482.658 1588.194)"/>
            <path id="Path_1581-2" d="M57.97 11.628v51.236l44.372 25.618 44.372-25.618V11.628L102.342-13.99z" class="cls-2" transform="translate(1194.658 1588.194)"/>
            <path id="Path_1586-2" d="M57.97 11.628v51.236l44.372 25.618 44.372-25.618V11.628L102.342-13.99z" class="cls-2" transform="translate(749.658 1588.194)"/>
            <path id="Path_1591-2" d="M57.97 11.628v51.236l44.372 25.618 44.372-25.618V11.628L102.342-13.99z" class="cls-2" transform="translate(304.658 1588.194)"/>
            <path id="Path_1582-2" d="M57.97 11.628v51.236l44.372 25.618 44.372-25.618V11.628L102.342-13.99z" class="cls-2" transform="translate(1105.658 1588.194)"/>
            <path id="Path_1587-2" d="M57.97 11.628v51.236l44.372 25.618 44.372-25.618V11.628L102.342-13.99z" class="cls-2" transform="translate(660.658 1588.194)"/>
            <path id="Path_1592-2" d="M57.97 11.628v51.236l44.372 25.618 44.372-25.618V11.628L102.342-13.99z" class="cls-2" transform="translate(215.658 1588.194)"/>
            <path id="Path_1595-2" d="M57.97 11.628v51.236l44.372 25.618 44.372-25.618V11.628L102.342-13.99z" class="cls-2" transform="translate(37.658 1588.194)"/>
            <path id="Path_1575-2" d="M57.97 11.628v51.236l44.372 25.618 44.372-25.618V11.628L102.342-13.99z" class="cls-2" transform="translate(1461.658 1588.194)"/>
            <path id="Path_1583-2" d="M57.97 11.628v51.236l44.372 25.618 44.372-25.618V11.628L102.342-13.99z" class="cls-2" transform="translate(1016.658 1588.194)"/>
            <path id="Path_1588-2" d="M57.97 11.628v51.236l44.372 25.618 44.372-25.618V11.628L102.342-13.99z" class="cls-2" transform="translate(571.658 1588.194)"/>
            <path id="Path_1593-2" d="M57.97 11.628v51.236l44.372 25.618 44.372-25.618V11.628L102.342-13.99z" class="cls-2" transform="translate(126.658 1588.194)"/>
            <path id="Path_1594-2" d="M57.97 11.628v51.236l44.372 25.618 44.372-25.618V11.628L102.342-13.99z" class="cls-2" transform="translate(-51.342 1588.194)"/>
            <path id="Path_1576-2" d="M57.97 11.628v51.236l44.372 25.618 44.372-25.618V11.628L102.342-13.99z" class="cls-2" transform="translate(1639.658 1588.194)"/>
            <path id="Path_1574-2" d="M57.97 11.628v51.236l44.372 25.618 44.372-25.618V11.628L102.342-13.99z" class="cls-2" transform="translate(1550.658 1588.194)"/>
            <path id="Path_1577-2" d="M57.97 11.628v51.236l44.372 25.618 44.372-25.618V11.628L102.342-13.99z" class="cls-2" transform="translate(1728.658 1588.194)"/>
            <path id="Path_1590-2" d="M57.97 11.628v51.236l44.372 25.618 44.372-25.618V11.628L102.342-13.99z" class="cls-2" transform="translate(393.658 1588.194)"/>
        </g>
        <g id="Group_536" opacity="0.1" transform="translate(304 1944)">
            <path id="Path_1580-3" d="M57.97 11.628v51.236l44.372 25.618 44.372-25.618V11.628L102.342-13.99z" class="cls-2" transform="translate(1283.658 1588.194)"/>
            <path id="Path_1585-3" d="M57.97 11.628v51.236l44.372 25.618 44.372-25.618V11.628L102.342-13.99z" class="cls-2" transform="translate(838.658 1588.194)"/>
            <path id="Path_1578-3" d="M57.97 11.628v51.236l44.372 25.618 44.372-25.618V11.628L102.342-13.99z" class="cls-2" transform="translate(1817.658 1588.194)"/>
            <path id="Path_1579-3" d="M57.97 11.628v51.236l44.372 25.618 44.372-25.618V11.628L102.342-13.99z" class="cls-2" transform="translate(1372.658 1588.194)"/>
            <path id="Path_1584-3" d="M57.97 11.628v51.236l44.372 25.618 44.372-25.618V11.628L102.342-13.99z" class="cls-2" transform="translate(927.658 1588.194)"/>
            <path id="Path_1589-3" d="M57.97 11.628v51.236l44.372 25.618 44.372-25.618V11.628L102.342-13.99z" class="cls-2" transform="translate(482.658 1588.194)"/>
            <path id="Path_1581-3" d="M57.97 11.628v51.236l44.372 25.618 44.372-25.618V11.628L102.342-13.99z" class="cls-2" transform="translate(1194.658 1588.194)"/>
            <path id="Path_1586-3" d="M57.97 11.628v51.236l44.372 25.618 44.372-25.618V11.628L102.342-13.99z" class="cls-2" transform="translate(749.658 1588.194)"/>
            <path id="Path_1591-3" d="M57.97 11.628v51.236l44.372 25.618 44.372-25.618V11.628L102.342-13.99z" class="cls-2" transform="translate(304.658 1588.194)"/>
            <path id="Path_1582-3" d="M57.97 11.628v51.236l44.372 25.618 44.372-25.618V11.628L102.342-13.99z" class="cls-2" transform="translate(1105.658 1588.194)"/>
            <path id="Path_1587-3" d="M57.97 11.628v51.236l44.372 25.618 44.372-25.618V11.628L102.342-13.99z" class="cls-2" transform="translate(660.658 1588.194)"/>
            <path id="Path_1592-3" d="M57.97 11.628v51.236l44.372 25.618 44.372-25.618V11.628L102.342-13.99z" class="cls-2" transform="translate(215.658 1588.194)"/>
            <path id="Path_1595-3" d="M57.97 11.628v51.236l44.372 25.618 44.372-25.618V11.628L102.342-13.99z" class="cls-2" transform="translate(37.658 1588.194)"/>
            <path id="Path_1575-3" d="M57.97 11.628v51.236l44.372 25.618 44.372-25.618V11.628L102.342-13.99z" class="cls-2" transform="translate(1461.658 1588.194)"/>
            <path id="Path_1583-3" d="M57.97 11.628v51.236l44.372 25.618 44.372-25.618V11.628L102.342-13.99z" class="cls-2" transform="translate(1016.658 1588.194)"/>
            <path id="Path_1588-3" d="M57.97 11.628v51.236l44.372 25.618 44.372-25.618V11.628L102.342-13.99z" class="cls-2" transform="translate(571.658 1588.194)"/>
            <path id="Path_1593-3" d="M57.97 11.628v51.236l44.372 25.618 44.372-25.618V11.628L102.342-13.99z" class="cls-2" transform="translate(126.658 1588.194)"/>
            <path id="Path_1594-3" d="M57.97 11.628v51.236l44.372 25.618 44.372-25.618V11.628L102.342-13.99z" class="cls-2" transform="translate(-51.342 1588.194)"/>
            <path id="Path_1576-3" d="M57.97 11.628v51.236l44.372 25.618 44.372-25.618V11.628L102.342-13.99z" class="cls-2" transform="translate(1639.658 1588.194)"/>
            <path id="Path_1574-3" d="M57.97 11.628v51.236l44.372 25.618 44.372-25.618V11.628L102.342-13.99z" class="cls-2" transform="translate(1550.658 1588.194)"/>
            <path id="Path_1577-3" d="M57.97 11.628v51.236l44.372 25.618 44.372-25.618V11.628L102.342-13.99z" class="cls-2" transform="translate(1728.658 1588.194)"/>
            <path id="Path_1590-3" d="M57.97 11.628v51.236l44.372 25.618 44.372-25.618V11.628L102.342-13.99z" class="cls-2" transform="translate(393.658 1588.194)"/>
        </g>
    </g>
</svg>
